<svg width="39" height="49" viewBox="0 0 39 49" fill="none" xmlns="http://www.w3.org/2000/svg">
<path d="M16.9883 38.2383C16.8092 39.5078 16.5488 40.5902 16.207 41.4854C15.8652 42.3643 15.4502 43.0885 14.9619 43.6582C14.4736 44.2116 13.9121 44.6104 13.2773 44.8545C12.6589 45.1149 11.9753 45.2451 11.2266 45.2451C10.1686 45.2451 9.17578 44.9359 8.24805 44.3174C7.33659 43.6989 6.5472 42.7793 5.87988 41.5586C5.21257 40.3379 4.68359 38.8242 4.29297 37.0176C3.91862 35.2109 3.73145 33.1195 3.73145 30.7432C3.73145 28.2529 3.96745 25.8359 4.43945 23.4922C4.92773 21.1484 5.61133 18.9512 6.49023 16.9004C7.38542 14.8496 8.4515 12.9779 9.68848 11.2852C10.9417 9.57617 12.3333 8.11947 13.8633 6.91504C15.4095 5.69434 17.0778 4.75033 18.8682 4.08301C20.6585 3.39941 22.5303 3.05762 24.4834 3.05762C26.1598 3.05762 27.6898 3.3099 29.0732 3.81445C30.4567 4.31901 31.6449 5.01888 32.6377 5.91406C33.6305 6.80924 34.3955 7.86719 34.9326 9.08789C35.4697 10.3086 35.7383 11.627 35.7383 13.043C35.7383 14.752 35.5023 16.347 35.0303 17.8281C34.5583 19.293 33.8991 20.6357 33.0527 21.8564C32.2227 23.0771 31.2298 24.1676 30.0742 25.1279C28.9186 26.0882 27.6572 26.902 26.29 27.5693C24.9391 28.2367 23.5068 28.7575 21.9932 29.1318C20.4958 29.4899 18.974 29.6934 17.4277 29.7422C17.3789 31.7767 17.3219 33.4938 17.2568 34.8936C17.208 36.277 17.1185 37.3919 16.9883 38.2383ZM12.7402 28.0088C12.8216 28.0413 12.9193 28.0739 13.0332 28.1064C13.1309 28.139 13.2448 28.1715 13.375 28.2041C13.5215 28.2367 13.6924 28.2692 13.8877 28.3018C13.8551 26.2673 13.8145 24.4036 13.7656 22.7109C13.7331 21.002 13.6924 19.5127 13.6436 18.2432C13.5785 16.762 13.5215 15.4274 13.4727 14.2393C13.5866 14.1416 13.7168 14.0602 13.8633 13.9951C13.9935 13.93 14.1481 13.873 14.3271 13.8242C14.5062 13.7754 14.7259 13.751 14.9863 13.751C15.735 13.751 16.3372 13.8893 16.793 14.166C17.2487 14.4264 17.4766 14.874 17.4766 15.5088C17.4766 18.1943 17.4766 20.6032 17.4766 22.7354C17.4766 24.8675 17.4603 26.7881 17.4277 28.4971C19.5599 28.4971 21.4886 28.0902 23.2139 27.2764C24.9554 26.4626 26.4365 25.3802 27.6572 24.0293C28.8779 22.6621 29.8219 21.0915 30.4893 19.3174C31.1566 17.5433 31.4902 15.6878 31.4902 13.751C31.4902 12.514 31.3193 11.3421 30.9775 10.2354C30.652 9.1123 30.1475 8.13574 29.4639 7.30566C28.7803 6.45931 27.9176 5.79199 26.876 5.30371C25.8506 4.79915 24.638 4.54688 23.2383 4.54688C21.8223 4.54688 20.4225 4.81543 19.0391 5.35254C17.6719 5.88965 16.3617 6.69531 15.1084 7.76953C13.8714 8.84375 12.724 10.1784 11.666 11.7734C10.6243 13.3685 9.71289 15.2321 8.93164 17.3643C8.16667 19.4964 7.56445 21.889 7.125 24.542C6.70182 27.1787 6.49023 30.084 6.49023 33.2578C6.49023 34.625 6.55534 35.9596 6.68555 37.2617C6.83203 38.5475 7.06803 39.695 7.39355 40.7041C7.71908 41.6969 8.15039 42.4945 8.6875 43.0967C9.24089 43.6989 9.92448 44 10.7383 44C11.1777 44 11.5928 43.9105 11.9834 43.7314C12.374 43.5524 12.7158 43.1862 13.0088 42.6328C13.3018 42.0632 13.5378 41.2575 13.7168 40.2158C13.8958 39.1579 13.9854 37.75 13.9854 35.9922C13.9854 34.8854 13.9772 33.7949 13.9609 32.7207C13.9447 31.6302 13.9365 30.5723 13.9365 29.5469C13.6924 29.5143 13.4808 29.4736 13.3018 29.4248C13.1227 29.376 12.9681 29.3353 12.8379 29.3027C12.6914 29.2539 12.5693 29.2051 12.4717 29.1562L12.7402 28.0088Z" fill="#86CA30"/>
<path d="M16.9883 38.2383L14.0232 37.7821L14.0203 37.8007L14.0177 37.8194L16.9883 38.2383ZM16.207 41.4854L19.003 42.5727L19.0064 42.5641L19.0097 42.5555L16.207 41.4854ZM14.9619 43.6582L17.2114 45.6431L17.2257 45.6269L17.2397 45.6106L14.9619 43.6582ZM13.2773 44.8545L12.2004 42.0545L12.1565 42.0713L12.1132 42.0896L13.2773 44.8545ZM8.24805 44.3174L6.56354 46.7998L6.57372 46.8067L6.58395 46.8135L8.24805 44.3174ZM4.29297 37.0176L1.35537 37.6263L1.35799 37.6389L1.36073 37.6516L4.29297 37.0176ZM4.43945 23.4922L1.50251 22.8803L1.50047 22.8901L1.4985 22.8999L4.43945 23.4922ZM6.49023 16.9004L3.74076 15.7002L3.73675 15.7094L3.7328 15.7186L6.49023 16.9004ZM9.68848 11.2852L7.26926 9.51106L7.2663 9.51511L9.68848 11.2852ZM13.8633 6.91504L15.719 9.27225L15.7222 9.26969L13.8633 6.91504ZM18.8682 4.08301L19.9159 6.89409L19.9271 6.88992L19.9383 6.88566L18.8682 4.08301ZM29.0732 3.81445L28.0454 6.63286L29.0732 3.81445ZM35.0303 17.8281L37.8857 18.7482L37.8886 18.739L35.0303 17.8281ZM33.0527 21.8564L30.5873 20.1471L30.5796 20.1583L30.572 20.1695L33.0527 21.8564ZM30.0742 25.1279L31.9916 27.4353L30.0742 25.1279ZM26.29 27.5693L24.9741 24.8733L24.9677 24.8765L24.9614 24.8796L26.29 27.5693ZM21.9932 29.1318L22.6909 32.0496L22.7022 32.0469L22.7134 32.0441L21.9932 29.1318ZM17.4277 29.7422L17.333 26.7437L14.4967 26.8333L14.4286 29.6702L17.4277 29.7422ZM17.2568 34.8936L14.2601 34.7542L14.2593 34.771L14.2587 34.7877L17.2568 34.8936ZM12.7402 28.0088L13.8544 25.2234L10.6144 23.9274L9.81917 27.3251L12.7402 28.0088ZM13.0332 28.1064L13.9819 25.2604L13.92 25.2398L13.8574 25.2219L13.0332 28.1064ZM13.375 28.2041L12.6474 31.1145L12.6857 31.1241L12.7242 31.1327L13.375 28.2041ZM13.8877 28.3018L13.3945 31.2609L16.9449 31.8527L16.8873 28.2538L13.8877 28.3018ZM13.7656 22.7109L10.7662 22.7681L10.7664 22.7828L10.7669 22.7974L13.7656 22.7109ZM13.6436 18.2432L16.6413 18.1279L16.641 18.1196L16.6407 18.1114L13.6436 18.2432ZM13.4727 14.2393L11.5203 11.9615L10.4154 12.9085L10.4752 14.3624L13.4727 14.2393ZM13.8633 13.9951L15.0817 16.7366L15.144 16.7089L15.2049 16.6784L13.8633 13.9951ZM16.793 14.166L15.236 16.7304L15.27 16.751L15.3046 16.7707L16.793 14.166ZM17.4277 28.4971L14.4283 28.4399L14.37 31.4971H17.4277V28.4971ZM23.2139 27.2764L21.9438 24.5584L21.934 24.5631L23.2139 27.2764ZM27.6572 24.0293L29.8831 26.0406L29.8891 26.034L29.895 26.0273L27.6572 24.0293ZM30.9775 10.2354L28.0961 11.0705L28.1034 11.0956L28.1111 11.1206L30.9775 10.2354ZM29.4639 7.30566L27.13 9.19068L27.139 9.20177L27.1481 9.21279L29.4639 7.30566ZM26.876 5.30371L25.5515 7.99548L25.5769 8.00803L25.6027 8.02009L26.876 5.30371ZM19.0391 5.35254L17.9533 2.55589L17.9421 2.56028L19.0391 5.35254ZM15.1084 7.76953L13.156 5.49176L13.1487 5.49807L13.1413 5.50443L15.1084 7.76953ZM11.666 11.7734L9.16595 10.1152L9.16004 10.1241L9.1542 10.1331L11.666 11.7734ZM8.93164 17.3643L6.11478 16.3321L6.1113 16.3416L6.10788 16.3512L8.93164 17.3643ZM7.125 24.542L4.16533 24.0517L4.1641 24.0592L4.16291 24.0666L7.125 24.542ZM6.68555 37.2617L3.70044 37.5602L3.70249 37.5808L3.70483 37.6013L6.68555 37.2617ZM7.39355 40.7041L4.53843 41.6251L4.54063 41.6319L4.54287 41.6388L7.39355 40.7041ZM8.6875 43.0967L6.44861 45.0935L6.46344 45.1101L6.47852 45.1266L8.6875 43.0967ZM11.9834 43.7314L10.7334 41.0042L11.9834 43.7314ZM13.0088 42.6328L15.6602 44.0365L15.6685 44.0207L15.6767 44.0049L13.0088 42.6328ZM13.7168 40.2158L16.6735 40.724L16.6747 40.7164L13.7168 40.2158ZM13.9609 32.7207L10.9613 32.7655L10.9613 32.7662L13.9609 32.7207ZM13.9365 29.5469H16.9365V26.9203L14.333 26.5732L13.9365 29.5469ZM12.8379 29.3027L11.8892 32.1488L11.9985 32.1852L12.1103 32.2132L12.8379 29.3027ZM12.4717 29.1562L9.55062 28.4726L9.01063 30.7798L11.13 31.8395L12.4717 29.1562ZM14.0177 37.8194C13.8602 38.9359 13.6442 39.787 13.4044 40.4152L19.0097 42.5555C19.4534 41.3933 19.7583 40.0797 19.9589 38.6572L14.0177 37.8194ZM13.411 40.398C13.1618 41.0389 12.9038 41.4496 12.6841 41.7058L17.2397 45.6106C17.9966 44.7275 18.5687 43.6896 19.003 42.5727L13.411 40.398ZM12.7124 41.6733C12.5158 41.8961 12.3467 41.9982 12.2004 42.0545L14.3543 47.6545C15.4775 47.2225 16.4314 46.5271 17.2114 45.6431L12.7124 41.6733ZM12.1132 42.0896C11.9036 42.1778 11.6217 42.2451 11.2266 42.2451V48.2451C12.3288 48.2451 13.4141 48.052 14.4415 47.6194L12.1132 42.0896ZM11.2266 42.2451C10.7937 42.2451 10.3751 42.1299 9.91215 41.8212L6.58395 46.8135C7.97648 47.7419 9.54356 48.2451 11.2266 48.2451V42.2451ZM9.93255 41.835C9.50549 41.5452 9.00961 41.0294 8.51223 40.1196L3.24754 42.9976C4.0848 44.5292 5.16768 45.8526 6.56354 46.7998L9.93255 41.835ZM8.51223 40.1196C8.01976 39.2187 7.57367 37.9952 7.22521 36.3836L1.36073 37.6516C1.79352 39.6532 2.40537 41.4571 3.24754 42.9976L8.51223 40.1196ZM7.23057 36.4089C6.90757 34.8501 6.73145 32.9701 6.73145 30.7432H0.731445C0.731445 33.2688 0.929666 35.5718 1.35537 37.6263L7.23057 36.4089ZM6.73145 30.7432C6.73145 28.4436 6.94926 26.2253 7.38041 24.0845L1.4985 22.8999C0.985632 25.4466 0.731445 28.0623 0.731445 30.7432H6.73145ZM7.37639 24.104C7.82689 21.9417 8.4529 19.9366 9.24767 18.0821L3.7328 15.7186C2.76976 17.9657 2.02857 20.3552 1.50251 22.8803L7.37639 24.104ZM9.23971 18.1006C10.0529 16.2377 11.0117 14.559 12.1107 13.0552L7.2663 9.51511C5.8913 11.3967 4.71797 13.4615 3.74076 15.7002L9.23971 18.1006ZM12.1077 13.0592C13.2144 11.5501 14.4203 10.2946 15.719 9.27225L12.0076 4.55783C10.2464 5.94434 8.66903 7.60229 7.26926 9.51106L12.1077 13.0592ZM15.7222 9.26969C17.0311 8.23633 18.4271 7.44902 19.9159 6.89409L17.8204 1.27192C15.7285 2.05163 13.7879 3.15234 12.0043 4.56039L15.7222 9.26969ZM19.9383 6.88566C21.3803 6.33506 22.8889 6.05762 24.4834 6.05762V0.0576172C22.1717 0.0576172 19.9367 0.46377 17.7981 1.28035L19.9383 6.88566ZM24.4834 6.05762C25.8572 6.05762 27.0335 6.26383 28.0454 6.63286L30.1011 0.996042C28.3461 0.355957 26.4625 0.0576172 24.4834 0.0576172V6.05762ZM28.0454 6.63286C29.1038 7.01888 29.9498 7.5299 30.6288 8.14213L34.6466 3.686C33.3399 2.50786 31.8096 1.61914 30.1011 0.996042L28.0454 6.63286ZM30.6288 8.14213C31.3074 8.75398 31.8208 9.46459 32.1867 10.2961L37.6786 7.87967C36.9702 6.26979 35.9537 4.86451 34.6466 3.686L30.6288 8.14213ZM32.1867 10.2961C32.546 11.1128 32.7383 12.0168 32.7383 13.043H38.7383C38.7383 11.2371 38.3934 9.50436 37.6786 7.87967L32.1867 10.2961ZM32.7383 13.043C32.7383 14.4733 32.5412 15.7583 32.1719 16.9172L37.8886 18.739C38.4633 16.9357 38.7383 15.0306 38.7383 13.043H32.7383ZM32.1748 16.908C31.79 18.1023 31.2596 19.1775 30.5873 20.1471L35.5181 23.5658C36.5386 22.0939 37.3265 20.4837 37.8857 18.7482L32.1748 16.908ZM30.572 20.1695C29.9026 21.1539 29.1004 22.0365 28.1569 22.8206L31.9916 27.4353C33.3592 26.2988 34.5428 25.0004 35.5335 23.5434L30.572 20.1695ZM28.1569 22.8206C27.1878 23.6259 26.1288 24.3098 24.9741 24.8733L27.6059 30.2653C29.1857 29.4943 30.6494 28.5506 31.9916 27.4353L28.1569 22.8206ZM24.9614 24.8796C23.8113 25.4477 22.5837 25.8954 21.2729 26.2196L22.7134 32.0441C24.43 31.6196 26.067 31.0256 27.6187 30.2591L24.9614 24.8796ZM21.2954 26.2141C19.9968 26.5247 18.677 26.7012 17.333 26.7437L17.5224 32.7407C19.2709 32.6855 20.9948 32.4552 22.6909 32.0496L21.2954 26.2141ZM14.4286 29.6702C14.3801 31.6913 14.3238 33.3844 14.2601 34.7542L20.2536 35.0329C20.3201 33.6032 20.3777 31.8621 20.4269 29.8142L14.4286 29.6702ZM14.2587 34.7877C14.2118 36.1158 14.1281 37.1002 14.0232 37.7821L19.9534 38.6945C20.1089 37.6837 20.2042 36.4382 20.255 34.9994L14.2587 34.7877ZM11.6261 30.7942C11.8287 30.8753 12.0285 30.9394 12.209 30.991L13.8574 25.2219C13.8361 25.2158 13.8252 25.2122 13.8232 25.2116C13.8224 25.2113 13.8246 25.212 13.8296 25.2138C13.8345 25.2156 13.8429 25.2188 13.8544 25.2234L11.6261 30.7942ZM12.0845 30.9525C12.273 31.0153 12.4637 31.0686 12.6474 31.1145L14.1026 25.2937C14.0259 25.2745 13.9887 25.2627 13.9819 25.2604L12.0845 30.9525ZM12.7242 31.1327C12.9364 31.1798 13.1619 31.2222 13.3945 31.2609L14.3809 25.3426C14.2228 25.3162 14.1066 25.2935 14.0258 25.2755L12.7242 31.1327ZM16.8873 28.2538C16.8546 26.2089 16.8136 24.3322 16.7644 22.6244L10.7669 22.7974C10.8153 24.4751 10.8557 26.3256 10.8881 28.3498L16.8873 28.2538ZM16.7651 22.6538C16.7323 20.9316 16.6911 19.4221 16.6413 18.1279L10.6458 18.3585C10.6937 19.6033 10.7339 21.0723 10.7662 22.7681L16.7651 22.6538ZM16.6407 18.1114C16.5757 16.6325 16.5188 15.3008 16.4701 14.1161L10.4752 14.3624C10.5242 15.554 10.5812 16.8916 10.6464 18.3749L16.6407 18.1114ZM15.425 16.517C15.3035 16.6212 15.1829 16.6916 15.0817 16.7366L12.6449 11.2537C12.2507 11.4289 11.8697 11.662 11.5203 11.9615L15.425 16.517ZM15.2049 16.6784C15.1591 16.7013 15.1273 16.7137 15.114 16.7186C15.1005 16.7236 15.1004 16.7229 15.1165 16.7185L13.5378 10.9299C13.2173 11.0173 12.8689 11.1382 12.5216 11.3118L15.2049 16.6784ZM15.1165 16.7185C15.0306 16.7419 14.974 16.7491 14.9575 16.7509C14.9401 16.7529 14.9479 16.751 14.9863 16.751V10.751C14.5575 10.751 14.0542 10.7891 13.5378 10.9299L15.1165 16.7185ZM14.9863 16.751C15.1804 16.751 15.2876 16.7693 15.3278 16.7786C15.3652 16.7872 15.3218 16.7824 15.236 16.7304L18.3499 11.6017C17.272 10.9472 16.0725 10.751 14.9863 10.751V16.751ZM15.3046 16.7707C15.0487 16.6246 14.7959 16.3797 14.6322 16.0581C14.4824 15.7638 14.4766 15.5428 14.4766 15.5088H20.4766C20.4766 14.0634 19.8819 12.4758 18.2814 11.5613L15.3046 16.7707ZM14.4766 15.5088C14.4766 15.514 14.4766 15.5193 14.4766 15.5245C14.4766 15.5298 14.4766 15.535 14.4766 15.5402C14.4766 15.5455 14.4766 15.5507 14.4766 15.556C14.4766 15.5612 14.4766 15.5664 14.4766 15.5717C14.4766 15.5769 14.4766 15.5822 14.4766 15.5874C14.4766 15.5926 14.4766 15.5979 14.4766 15.6031C14.4766 15.6083 14.4766 15.6136 14.4766 15.6188C14.4766 15.624 14.4766 15.6292 14.4766 15.6345C14.4766 15.6397 14.4766 15.6449 14.4766 15.6502C14.4766 15.6554 14.4766 15.6606 14.4766 15.6658C14.4766 15.6711 14.4766 15.6763 14.4766 15.6815C14.4766 15.6867 14.4766 15.6919 14.4766 15.6972C14.4766 15.7024 14.4766 15.7076 14.4766 15.7128C14.4766 15.718 14.4766 15.7233 14.4766 15.7285C14.4766 15.7337 14.4766 15.7389 14.4766 15.7441C14.4766 15.7493 14.4766 15.7545 14.4766 15.7597C14.4766 15.765 14.4766 15.7702 14.4766 15.7754C14.4766 15.7806 14.4766 15.7858 14.4766 15.791C14.4766 15.7962 14.4766 15.8014 14.4766 15.8066C14.4766 15.8118 14.4766 15.817 14.4766 15.8222C14.4766 15.8274 14.4766 15.8326 14.4766 15.8378C14.4766 15.843 14.4766 15.8482 14.4766 15.8534C14.4766 15.8586 14.4766 15.8638 14.4766 15.869C14.4766 15.8742 14.4766 15.8794 14.4766 15.8846C14.4766 15.8898 14.4766 15.895 14.4766 15.9002C14.4766 15.9054 14.4766 15.9106 14.4766 15.9158C14.4766 15.921 14.4766 15.9262 14.4766 15.9313C14.4766 15.9365 14.4766 15.9417 14.4766 15.9469C14.4766 15.9521 14.4766 15.9573 14.4766 15.9625C14.4766 15.9676 14.4766 15.9728 14.4766 15.978C14.4766 15.9832 14.4766 15.9884 14.4766 15.9936C14.4766 15.9987 14.4766 16.0039 14.4766 16.0091C14.4766 16.0143 14.4766 16.0194 14.4766 16.0246C14.4766 16.0298 14.4766 16.035 14.4766 16.0401C14.4766 16.0453 14.4766 16.0505 14.4766 16.0557C14.4766 16.0608 14.4766 16.066 14.4766 16.0712C14.4766 16.0763 14.4766 16.0815 14.4766 16.0867C14.4766 16.0918 14.4766 16.097 14.4766 16.1022C14.4766 16.1073 14.4766 16.1125 14.4766 16.1177C14.4766 16.1228 14.4766 16.128 14.4766 16.1331C14.4766 16.1383 14.4766 16.1435 14.4766 16.1486C14.4766 16.1538 14.4766 16.1589 14.4766 16.1641C14.4766 16.1693 14.4766 16.1744 14.4766 16.1796C14.4766 16.1847 14.4766 16.1899 14.4766 16.195C14.4766 16.2002 14.4766 16.2053 14.4766 16.2105C14.4766 16.2156 14.4766 16.2208 14.4766 16.2259C14.4766 16.2311 14.4766 16.2362 14.4766 16.2414C14.4766 16.2465 14.4766 16.2517 14.4766 16.2568C14.4766 16.2619 14.4766 16.2671 14.4766 16.2722C14.4766 16.2774 14.4766 16.2825 14.4766 16.2877C14.4766 16.2928 14.4766 16.2979 14.4766 16.3031C14.4766 16.3082 14.4766 16.3133 14.4766 16.3185C14.4766 16.3236 14.4766 16.3287 14.4766 16.3339C14.4766 16.339 14.4766 16.3441 14.4766 16.3493C14.4766 16.3544 14.4766 16.3595 14.4766 16.3647C14.4766 16.3698 14.4766 16.3749 14.4766 16.3801C14.4766 16.3852 14.4766 16.3903 14.4766 16.3954C14.4766 16.4006 14.4766 16.4057 14.4766 16.4108C14.4766 16.4159 14.4766 16.421 14.4766 16.4262C14.4766 16.4313 14.4766 16.4364 14.4766 16.4415C14.4766 16.4466 14.4766 16.4518 14.4766 16.4569C14.4766 16.462 14.4766 16.4671 14.4766 16.4722C14.4766 16.4773 14.4766 16.4825 14.4766 16.4876C14.4766 16.4927 14.4766 16.4978 14.4766 16.5029C14.4766 16.508 14.4766 16.5131 14.4766 16.5182C14.4766 16.5233 14.4766 16.5284 14.4766 16.5335C14.4766 16.5387 14.4766 16.5438 14.4766 16.5489C14.4766 16.554 14.4766 16.5591 14.4766 16.5642C14.4766 16.5693 14.4766 16.5744 14.4766 16.5795C14.4766 16.5846 14.4766 16.5897 14.4766 16.5948C14.4766 16.5999 14.4766 16.605 14.4766 16.6101C14.4766 16.6152 14.4766 16.6202 14.4766 16.6253C14.4766 16.6304 14.4766 16.6355 14.4766 16.6406C14.4766 16.6457 14.4766 16.6508 14.4766 16.6559C14.4766 16.661 14.4766 16.6661 14.4766 16.6712C14.4766 16.6762 14.4766 16.6813 14.4766 16.6864C14.4766 16.6915 14.4766 16.6966 14.4766 16.7017C14.4766 16.7067 14.4766 16.7118 14.4766 16.7169C14.4766 16.722 14.4766 16.7271 14.4766 16.7321C14.4766 16.7372 14.4766 16.7423 14.4766 16.7474C14.4766 16.7524 14.4766 16.7575 14.4766 16.7626C14.4766 16.7677 14.4766 16.7727 14.4766 16.7778C14.4766 16.7829 14.4766 16.788 14.4766 16.793C14.4766 16.7981 14.4766 16.8032 14.4766 16.8082C14.4766 16.8133 14.4766 16.8184 14.4766 16.8234C14.4766 16.8285 14.4766 16.8336 14.4766 16.8386C14.4766 16.8437 14.4766 16.8488 14.4766 16.8538C14.4766 16.8589 14.4766 16.8639 14.4766 16.869C14.4766 16.8741 14.4766 16.8791 14.4766 16.8842C14.4766 16.8892 14.4766 16.8943 14.4766 16.8993C14.4766 16.9044 14.4766 16.9095 14.4766 16.9145C14.4766 16.9196 14.4766 16.9246 14.4766 16.9297C14.4766 16.9347 14.4766 16.9398 14.4766 16.9448C14.4766 16.9499 14.4766 16.9549 14.4766 16.96C14.4766 16.965 14.4766 16.9701 14.4766 16.9751C14.4766 16.9801 14.4766 16.9852 14.4766 16.9902C14.4766 16.9953 14.4766 17.0003 14.4766 17.0054C14.4766 17.0104 14.4766 17.0154 14.4766 17.0205C14.4766 17.0255 14.4766 17.0305 14.4766 17.0356C14.4766 17.0406 14.4766 17.0457 14.4766 17.0507C14.4766 17.0557 14.4766 17.0608 14.4766 17.0658C14.4766 17.0708 14.4766 17.0758 14.4766 17.0809C14.4766 17.0859 14.4766 17.0909 14.4766 17.096C14.4766 17.101 14.4766 17.106 14.4766 17.111C14.4766 17.1161 14.4766 17.1211 14.4766 17.1261C14.4766 17.1311 14.4766 17.1362 14.4766 17.1412C14.4766 17.1462 14.4766 17.1512 14.4766 17.1562C14.4766 17.1613 14.4766 17.1663 14.4766 17.1713C14.4766 17.1763 14.4766 17.1813 14.4766 17.1864C14.4766 17.1914 14.4766 17.1964 14.4766 17.2014C14.4766 17.2064 14.4766 17.2114 14.4766 17.2164C14.4766 17.2214 14.4766 17.2264 14.4766 17.2315C14.4766 17.2365 14.4766 17.2415 14.4766 17.2465C14.4766 17.2515 14.4766 17.2565 14.4766 17.2615C14.4766 17.2665 14.4766 17.2715 14.4766 17.2765C14.4766 17.2815 14.4766 17.2865 14.4766 17.2915C14.4766 17.2965 14.4766 17.3015 14.4766 17.3065C14.4766 17.3115 14.4766 17.3165 14.4766 17.3215C14.4766 17.3265 14.4766 17.3315 14.4766 17.3365C14.4766 17.3415 14.4766 17.3465 14.4766 17.3515C14.4766 17.3565 14.4766 17.3615 14.4766 17.3664C14.4766 17.3714 14.4766 17.3764 14.4766 17.3814C14.4766 17.3864 14.4766 17.3914 14.4766 17.3964C14.4766 17.4014 14.4766 17.4063 14.4766 17.4113C14.4766 17.4163 14.4766 17.4213 14.4766 17.4263C14.4766 17.4312 14.4766 17.4362 14.4766 17.4412C14.4766 17.4462 14.4766 17.4512 14.4766 17.4561C14.4766 17.4611 14.4766 17.4661 14.4766 17.4711C14.4766 17.476 14.4766 17.481 14.4766 17.486C14.4766 17.491 14.4766 17.4959 14.4766 17.5009C14.4766 17.5059 14.4766 17.5108 14.4766 17.5158C14.4766 17.5208 14.4766 17.5258 14.4766 17.5307C14.4766 17.5357 14.4766 17.5407 14.4766 17.5456C14.4766 17.5506 14.4766 17.5555 14.4766 17.5605C14.4766 17.5655 14.4766 17.5704 14.4766 17.5754C14.4766 17.5803 14.4766 17.5853 14.4766 17.5903C14.4766 17.5952 14.4766 17.6002 14.4766 17.6051C14.4766 17.6101 14.4766 17.615 14.4766 17.62C14.4766 17.625 14.4766 17.6299 14.4766 17.6349C14.4766 17.6398 14.4766 17.6448 14.4766 17.6497C14.4766 17.6547 14.4766 17.6596 14.4766 17.6646C14.4766 17.6695 14.4766 17.6745 14.4766 17.6794C14.4766 17.6843 14.4766 17.6893 14.4766 17.6942C14.4766 17.6992 14.4766 17.7041 14.4766 17.7091C14.4766 17.714 14.4766 17.7189 14.4766 17.7239C14.4766 17.7288 14.4766 17.7338 14.4766 17.7387C14.4766 17.7436 14.4766 17.7486 14.4766 17.7535C14.4766 17.7584 14.4766 17.7634 14.4766 17.7683C14.4766 17.7732 14.4766 17.7782 14.4766 17.7831C14.4766 17.788 14.4766 17.793 14.4766 17.7979C14.4766 17.8028 14.4766 17.8077 14.4766 17.8127C14.4766 17.8176 14.4766 17.8225 14.4766 17.8274C14.4766 17.8324 14.4766 17.8373 14.4766 17.8422C14.4766 17.8471 14.4766 17.8521 14.4766 17.857C14.4766 17.8619 14.4766 17.8668 14.4766 17.8717C14.4766 17.8767 14.4766 17.8816 14.4766 17.8865C14.4766 17.8914 14.4766 17.8963 14.4766 17.9012C14.4766 17.9061 14.4766 17.9111 14.4766 17.916C14.4766 17.9209 14.4766 17.9258 14.4766 17.9307C14.4766 17.9356 14.4766 17.9405 14.4766 17.9454C14.4766 17.9503 14.4766 17.9552 14.4766 17.9601C14.4766 17.9651 14.4766 17.97 14.4766 17.9749C14.4766 17.9798 14.4766 17.9847 14.4766 17.9896C14.4766 17.9945 14.4766 17.9994 14.4766 18.0043C14.4766 18.0092 14.4766 18.0141 14.4766 18.019C14.4766 18.0239 14.4766 18.0288 14.4766 18.0336C14.4766 18.0385 14.4766 18.0434 14.4766 18.0483C14.4766 18.0532 14.4766 18.0581 14.4766 18.063C14.4766 18.0679 14.4766 18.0728 14.4766 18.0777C14.4766 18.0826 14.4766 18.0874 14.4766 18.0923C14.4766 18.0972 14.4766 18.1021 14.4766 18.107C14.4766 18.1119 14.4766 18.1168 14.4766 18.1216C14.4766 18.1265 14.4766 18.1314 14.4766 18.1363C14.4766 18.1412 14.4766 18.146 14.4766 18.1509C14.4766 18.1558 14.4766 18.1607 14.4766 18.1656C14.4766 18.1704 14.4766 18.1753 14.4766 18.1802C14.4766 18.185 14.4766 18.1899 14.4766 18.1948C14.4766 18.1997 14.4766 18.2045 14.4766 18.2094C14.4766 18.2143 14.4766 18.2191 14.4766 18.224C14.4766 18.2289 14.4766 18.2337 14.4766 18.2386C14.4766 18.2435 14.4766 18.2483 14.4766 18.2532C14.4766 18.2581 14.4766 18.2629 14.4766 18.2678C14.4766 18.2726 14.4766 18.2775 14.4766 18.2824C14.4766 18.2872 14.4766 18.2921 14.4766 18.2969C14.4766 18.3018 14.4766 18.3067 14.4766 18.3115C14.4766 18.3164 14.4766 18.3212 14.4766 18.3261C14.4766 18.3309 14.4766 18.3358 14.4766 18.3406C14.4766 18.3455 14.4766 18.3503 14.4766 18.3552C14.4766 18.36 14.4766 18.3649 14.4766 18.3697C14.4766 18.3746 14.4766 18.3794 14.4766 18.3842C14.4766 18.3891 14.4766 18.3939 14.4766 18.3988C14.4766 18.4036 14.4766 18.4085 14.4766 18.4133C14.4766 18.4181 14.4766 18.423 14.4766 18.4278C14.4766 18.4327 14.4766 18.4375 14.4766 18.4423C14.4766 18.4472 14.4766 18.452 14.4766 18.4568C14.4766 18.4617 14.4766 18.4665 14.4766 18.4713C14.4766 18.4762 14.4766 18.481 14.4766 18.4858C14.4766 18.4906 14.4766 18.4955 14.4766 18.5003C14.4766 18.5051 14.4766 18.51 14.4766 18.5148C14.4766 18.5196 14.4766 18.5244 14.4766 18.5293C14.4766 18.5341 14.4766 18.5389 14.4766 18.5437C14.4766 18.5485 14.4766 18.5534 14.4766 18.5582C14.4766 18.563 14.4766 18.5678 14.4766 18.5726C14.4766 18.5774 14.4766 18.5823 14.4766 18.5871C14.4766 18.5919 14.4766 18.5967 14.4766 18.6015C14.4766 18.6063 14.4766 18.6111 14.4766 18.616C14.4766 18.6208 14.4766 18.6256 14.4766 18.6304C14.4766 18.6352 14.4766 18.64 14.4766 18.6448C14.4766 18.6496 14.4766 18.6544 14.4766 18.6592C14.4766 18.664 14.4766 18.6688 14.4766 18.6736C14.4766 18.6784 14.4766 18.6832 14.4766 18.688C14.4766 18.6928 14.4766 18.6976 14.4766 18.7024C14.4766 18.7072 14.4766 18.712 14.4766 18.7168C14.4766 18.7216 14.4766 18.7264 14.4766 18.7312C14.4766 18.736 14.4766 18.7408 14.4766 18.7456C14.4766 18.7504 14.4766 18.7552 14.4766 18.7599C14.4766 18.7647 14.4766 18.7695 14.4766 18.7743C14.4766 18.7791 14.4766 18.7839 14.4766 18.7887C14.4766 18.7935 14.4766 18.7982 14.4766 18.803C14.4766 18.8078 14.4766 18.8126 14.4766 18.8174C14.4766 18.8221 14.4766 18.8269 14.4766 18.8317C14.4766 18.8365 14.4766 18.8413 14.4766 18.846C14.4766 18.8508 14.4766 18.8556 14.4766 18.8604C14.4766 18.8651 14.4766 18.8699 14.4766 18.8747C14.4766 18.8795 14.4766 18.8842 14.4766 18.889C14.4766 18.8938 14.4766 18.8985 14.4766 18.9033C14.4766 18.9081 14.4766 18.9128 14.4766 18.9176C14.4766 18.9224 14.4766 18.9271 14.4766 18.9319C14.4766 18.9367 14.4766 18.9414 14.4766 18.9462C14.4766 18.951 14.4766 18.9557 14.4766 18.9605C14.4766 18.9652 14.4766 18.97 14.4766 18.9748C14.4766 18.9795 14.4766 18.9843 14.4766 18.989C14.4766 18.9938 14.4766 18.9985 14.4766 19.0033C14.4766 19.008 14.4766 19.0128 14.4766 19.0175C14.4766 19.0223 14.4766 19.027 14.4766 19.0318C14.4766 19.0365 14.4766 19.0413 14.4766 19.046C14.4766 19.0508 14.4766 19.0555 14.4766 19.0603C14.4766 19.065 14.4766 19.0698 14.4766 19.0745C14.4766 19.0792 14.4766 19.084 14.4766 19.0887C14.4766 19.0935 14.4766 19.0982 14.4766 19.1029C14.4766 19.1077 14.4766 19.1124 14.4766 19.1172C14.4766 19.1219 14.4766 19.1266 14.4766 19.1314C14.4766 19.1361 14.4766 19.1408 14.4766 19.1456C14.4766 19.1503 14.4766 19.155 14.4766 19.1598C14.4766 19.1645 14.4766 19.1692 14.4766 19.1739C14.4766 19.1787 14.4766 19.1834 14.4766 19.1881C14.4766 19.1929 14.4766 19.1976 14.4766 19.2023C14.4766 19.207 14.4766 19.2118 14.4766 19.2165C14.4766 19.2212 14.4766 19.2259 14.4766 19.2306C14.4766 19.2354 14.4766 19.2401 14.4766 19.2448C14.4766 19.2495 14.4766 19.2542 14.4766 19.2589C14.4766 19.2637 14.4766 19.2684 14.4766 19.2731C14.4766 19.2778 14.4766 19.2825 14.4766 19.2872C14.4766 19.2919 14.4766 19.2966 14.4766 19.3013C14.4766 19.3061 14.4766 19.3108 14.4766 19.3155C14.4766 19.3202 14.4766 19.3249 14.4766 19.3296C14.4766 19.3343 14.4766 19.339 14.4766 19.3437C14.4766 19.3484 14.4766 19.3531 14.4766 19.3578C14.4766 19.3625 14.4766 19.3672 14.4766 19.3719C14.4766 19.3766 14.4766 19.3813 14.4766 19.386C14.4766 19.3907 14.4766 19.3954 14.4766 19.4001C14.4766 19.4048 14.4766 19.4095 14.4766 19.4142C14.4766 19.4189 14.4766 19.4235 14.4766 19.4282C14.4766 19.4329 14.4766 19.4376 14.4766 19.4423C14.4766 19.447 14.4766 19.4517 14.4766 19.4564C14.4766 19.461 14.4766 19.4657 14.4766 19.4704C14.4766 19.4751 14.4766 19.4798 14.4766 19.4845C14.4766 19.4891 14.4766 19.4938 14.4766 19.4985C14.4766 19.5032 14.4766 19.5079 14.4766 19.5125C14.4766 19.5172 14.4766 19.5219 14.4766 19.5266C14.4766 19.5312 14.4766 19.5359 14.4766 19.5406C14.4766 19.5453 14.4766 19.5499 14.4766 19.5546C14.4766 19.5593 14.4766 19.5639 14.4766 19.5686C14.4766 19.5733 14.4766 19.578 14.4766 19.5826C14.4766 19.5873 14.4766 19.592 14.4766 19.5966C14.4766 19.6013 14.4766 19.6059 14.4766 19.6106C14.4766 19.6153 14.4766 19.6199 14.4766 19.6246C14.4766 19.6293 14.4766 19.6339 14.4766 19.6386C14.4766 19.6432 14.4766 19.6479 14.4766 19.6525C14.4766 19.6572 14.4766 19.6619 14.4766 19.6665C14.4766 19.6712 14.4766 19.6758 14.4766 19.6805C14.4766 19.6851 14.4766 19.6898 14.4766 19.6944C14.4766 19.6991 14.4766 19.7037 14.4766 19.7084C14.4766 19.713 14.4766 19.7177 14.4766 19.7223C14.4766 19.727 14.4766 19.7316 14.4766 19.7362C14.4766 19.7409 14.4766 19.7455 14.4766 19.7502C14.4766 19.7548 14.4766 19.7595 14.4766 19.7641C14.4766 19.7687 14.4766 19.7734 14.4766 19.778C14.4766 19.7826 14.4766 19.7873 14.4766 19.7919C14.4766 19.7966 14.4766 19.8012 14.4766 19.8058C14.4766 19.8105 14.4766 19.8151 14.4766 19.8197C14.4766 19.8243 14.4766 19.829 14.4766 19.8336C14.4766 19.8382 14.4766 19.8429 14.4766 19.8475C14.4766 19.8521 14.4766 19.8567 14.4766 19.8614C14.4766 19.866 14.4766 19.8706 14.4766 19.8752C14.4766 19.8799 14.4766 19.8845 14.4766 19.8891C14.4766 19.8937 14.4766 19.8983 14.4766 19.903C14.4766 19.9076 14.4766 19.9122 14.4766 19.9168C14.4766 19.9214 14.4766 19.926 14.4766 19.9307C14.4766 19.9353 14.4766 19.9399 14.4766 19.9445C14.4766 19.9491 14.4766 19.9537 14.4766 19.9583C14.4766 19.9629 14.4766 19.9675 14.4766 19.9722C14.4766 19.9768 14.4766 19.9814 14.4766 19.986C14.4766 19.9906 14.4766 19.9952 14.4766 19.9998C14.4766 20.0044 14.4766 20.009 14.4766 20.0136C14.4766 20.0182 14.4766 20.0228 14.4766 20.0274C14.4766 20.032 14.4766 20.0366 14.4766 20.0412C14.4766 20.0458 14.4766 20.0504 14.4766 20.055C14.4766 20.0596 14.4766 20.0642 14.4766 20.0688C14.4766 20.0734 14.4766 20.0779 14.4766 20.0825C14.4766 20.0871 14.4766 20.0917 14.4766 20.0963C14.4766 20.1009 14.4766 20.1055 14.4766 20.1101C14.4766 20.1147 14.4766 20.1192 14.4766 20.1238C14.4766 20.1284 14.4766 20.133 14.4766 20.1376C14.4766 20.1422 14.4766 20.1467 14.4766 20.1513C14.4766 20.1559 14.4766 20.1605 14.4766 20.1651C14.4766 20.1696 14.4766 20.1742 14.4766 20.1788C14.4766 20.1834 14.4766 20.1879 14.4766 20.1925C14.4766 20.1971 14.4766 20.2017 14.4766 20.2062C14.4766 20.2108 14.4766 20.2154 14.4766 20.2199C14.4766 20.2245 14.4766 20.2291 14.4766 20.2336C14.4766 20.2382 14.4766 20.2428 14.4766 20.2473C14.4766 20.2519 14.4766 20.2565 14.4766 20.261C14.4766 20.2656 14.4766 20.2702 14.4766 20.2747C14.4766 20.2793 14.4766 20.2838 14.4766 20.2884C14.4766 20.293 14.4766 20.2975 14.4766 20.3021C14.4766 20.3066 14.4766 20.3112 14.4766 20.3157C14.4766 20.3203 14.4766 20.3249 14.4766 20.3294C14.4766 20.334 14.4766 20.3385 14.4766 20.3431C14.4766 20.3476 14.4766 20.3522 14.4766 20.3567C14.4766 20.3613 14.4766 20.3658 14.4766 20.3704C14.4766 20.3749 14.4766 20.3794 14.4766 20.384C14.4766 20.3885 14.4766 20.3931 14.4766 20.3976C14.4766 20.4022 14.4766 20.4067 14.4766 20.4112C14.4766 20.4158 14.4766 20.4203 14.4766 20.4249C14.4766 20.4294 14.4766 20.4339 14.4766 20.4385C14.4766 20.443 14.4766 20.4475 14.4766 20.4521C14.4766 20.4566 14.4766 20.4611 14.4766 20.4657C14.4766 20.4702 14.4766 20.4747 14.4766 20.4793C14.4766 20.4838 14.4766 20.4883 14.4766 20.4929C14.4766 20.4974 14.4766 20.5019 14.4766 20.5064C14.4766 20.511 14.4766 20.5155 14.4766 20.52C14.4766 20.5245 14.4766 20.5291 14.4766 20.5336C14.4766 20.5381 14.4766 20.5426 14.4766 20.5471C14.4766 20.5517 14.4766 20.5562 14.4766 20.5607C14.4766 20.5652 14.4766 20.5697 14.4766 20.5742C14.4766 20.5788 14.4766 20.5833 14.4766 20.5878C14.4766 20.5923 14.4766 20.5968 14.4766 20.6013C14.4766 20.6058 14.4766 20.6103 14.4766 20.6148C14.4766 20.6193 14.4766 20.6239 14.4766 20.6284C14.4766 20.6329 14.4766 20.6374 14.4766 20.6419C14.4766 20.6464 14.4766 20.6509 14.4766 20.6554C14.4766 20.6599 14.4766 20.6644 14.4766 20.6689C14.4766 20.6734 14.4766 20.6779 14.4766 20.6824C14.4766 20.6869 14.4766 20.6914 14.4766 20.6959C14.4766 20.7004 14.4766 20.7049 14.4766 20.7094C14.4766 20.7139 14.4766 20.7183 14.4766 20.7228C14.4766 20.7273 14.4766 20.7318 14.4766 20.7363C14.4766 20.7408 14.4766 20.7453 14.4766 20.7498C14.4766 20.7543 14.4766 20.7588 14.4766 20.7632C14.4766 20.7677 14.4766 20.7722 14.4766 20.7767C14.4766 20.7812 14.4766 20.7857 14.4766 20.7901C14.4766 20.7946 14.4766 20.7991 14.4766 20.8036C14.4766 20.8081 14.4766 20.8125 14.4766 20.817C14.4766 20.8215 14.4766 20.826 14.4766 20.8304C14.4766 20.8349 14.4766 20.8394 14.4766 20.8439C14.4766 20.8483 14.4766 20.8528 14.4766 20.8573C14.4766 20.8617 14.4766 20.8662 14.4766 20.8707C14.4766 20.8751 14.4766 20.8796 14.4766 20.8841C14.4766 20.8885 14.4766 20.893 14.4766 20.8975C14.4766 20.9019 14.4766 20.9064 14.4766 20.9109C14.4766 20.9153 14.4766 20.9198 14.4766 20.9242C14.4766 20.9287 14.4766 20.9332 14.4766 20.9376C14.4766 20.9421 14.4766 20.9465 14.4766 20.951C14.4766 20.9555 14.4766 20.9599 14.4766 20.9644C14.4766 20.9688 14.4766 20.9733 14.4766 20.9777C14.4766 20.9822 14.4766 20.9866 14.4766 20.9911C14.4766 20.9955 14.4766 21 14.4766 21.0044C14.4766 21.0089 14.4766 21.0133 14.4766 21.0178C14.4766 21.0222 14.4766 21.0266 14.4766 21.0311C14.4766 21.0355 14.4766 21.04 14.4766 21.0444C14.4766 21.0489 14.4766 21.0533 14.4766 21.0577C14.4766 21.0622 14.4766 21.0666 14.4766 21.071C14.4766 21.0755 14.4766 21.0799 14.4766 21.0844C14.4766 21.0888 14.4766 21.0932 14.4766 21.0977C14.4766 21.1021 14.4766 21.1065 14.4766 21.1109C14.4766 21.1154 14.4766 21.1198 14.4766 21.1242C14.4766 21.1287 14.4766 21.1331 14.4766 21.1375C14.4766 21.1419 14.4766 21.1464 14.4766 21.1508C14.4766 21.1552 14.4766 21.1596 14.4766 21.1641C14.4766 21.1685 14.4766 21.1729 14.4766 21.1773C14.4766 21.1817 14.4766 21.1862 14.4766 21.1906C14.4766 21.195 14.4766 21.1994 14.4766 21.2038C14.4766 21.2082 14.4766 21.2127 14.4766 21.2171C14.4766 21.2215 14.4766 21.2259 14.4766 21.2303C14.4766 21.2347 14.4766 21.2391 14.4766 21.2435C14.4766 21.2479 14.4766 21.2524 14.4766 21.2568C14.4766 21.2612 14.4766 21.2656 14.4766 21.27C14.4766 21.2744 14.4766 21.2788 14.4766 21.2832C14.4766 21.2876 14.4766 21.292 14.4766 21.2964C14.4766 21.3008 14.4766 21.3052 14.4766 21.3096C14.4766 21.314 14.4766 21.3184 14.4766 21.3228C14.4766 21.3272 14.4766 21.3316 14.4766 21.336C14.4766 21.3404 14.4766 21.3448 14.4766 21.3492C14.4766 21.3536 14.4766 21.3579 14.4766 21.3623C14.4766 21.3667 14.4766 21.3711 14.4766 21.3755C14.4766 21.3799 14.4766 21.3843 14.4766 21.3887C14.4766 21.393 14.4766 21.3974 14.4766 21.4018C14.4766 21.4062 14.4766 21.4106 14.4766 21.415C14.4766 21.4193 14.4766 21.4237 14.4766 21.4281C14.4766 21.4325 14.4766 21.4369 14.4766 21.4412C14.4766 21.4456 14.4766 21.45 14.4766 21.4544C14.4766 21.4587 14.4766 21.4631 14.4766 21.4675C14.4766 21.4719 14.4766 21.4762 14.4766 21.4806C14.4766 21.485 14.4766 21.4894 14.4766 21.4937C14.4766 21.4981 14.4766 21.5025 14.4766 21.5068C14.4766 21.5112 14.4766 21.5156 14.4766 21.5199C14.4766 21.5243 14.4766 21.5287 14.4766 21.533C14.4766 21.5374 14.4766 21.5417 14.4766 21.5461C14.4766 21.5505 14.4766 21.5548 14.4766 21.5592C14.4766 21.5635 14.4766 21.5679 14.4766 21.5723C14.4766 21.5766 14.4766 21.581 14.4766 21.5853C14.4766 21.5897 14.4766 21.594 14.4766 21.5984C14.4766 21.6027 14.4766 21.6071 14.4766 21.6114C14.4766 21.6158 14.4766 21.6201 14.4766 21.6245C14.4766 21.6288 14.4766 21.6332 14.4766 21.6375C14.4766 21.6419 14.4766 21.6462 14.4766 21.6506C14.4766 21.6549 14.4766 21.6592 14.4766 21.6636C14.4766 21.6679 14.4766 21.6723 14.4766 21.6766C14.4766 21.6809 14.4766 21.6853 14.4766 21.6896C14.4766 21.694 14.4766 21.6983 14.4766 21.7026C14.4766 21.707 14.4766 21.7113 14.4766 21.7156C14.4766 21.72 14.4766 21.7243 14.4766 21.7286C14.4766 21.733 14.4766 21.7373 14.4766 21.7416C14.4766 21.746 14.4766 21.7503 14.4766 21.7546C14.4766 21.7589 14.4766 21.7633 14.4766 21.7676C14.4766 21.7719 14.4766 21.7762 14.4766 21.7806C14.4766 21.7849 14.4766 21.7892 14.4766 21.7935C14.4766 21.7978 14.4766 21.8022 14.4766 21.8065C14.4766 21.8108 14.4766 21.8151 14.4766 21.8194C14.4766 21.8237 14.4766 21.8281 14.4766 21.8324C14.4766 21.8367 14.4766 21.841 14.4766 21.8453C14.4766 21.8496 14.4766 21.8539 14.4766 21.8582C14.4766 21.8626 14.4766 21.8669 14.4766 21.8712C14.4766 21.8755 14.4766 21.8798 14.4766 21.8841C14.4766 21.8884 14.4766 21.8927 14.4766 21.897C14.4766 21.9013 14.4766 21.9056 14.4766 21.9099C14.4766 21.9142 14.4766 21.9185 14.4766 21.9228C14.4766 21.9271 14.4766 21.9314 14.4766 21.9357C14.4766 21.94 14.4766 21.9443 14.4766 21.9486C14.4766 21.9529 14.4766 21.9572 14.4766 21.9615C14.4766 21.9658 14.4766 21.9701 14.4766 21.9744C14.4766 21.9787 14.4766 21.9829 14.4766 21.9872C14.4766 21.9915 14.4766 21.9958 14.4766 22.0001C14.4766 22.0044 14.4766 22.0087 14.4766 22.013C14.4766 22.0172 14.4766 22.0215 14.4766 22.0258C14.4766 22.0301 14.4766 22.0344 14.4766 22.0387C14.4766 22.0429 14.4766 22.0472 14.4766 22.0515C14.4766 22.0558 14.4766 22.06 14.4766 22.0643C14.4766 22.0686 14.4766 22.0729 14.4766 22.0771C14.4766 22.0814 14.4766 22.0857 14.4766 22.09C14.4766 22.0942 14.4766 22.0985 14.4766 22.1028C14.4766 22.107 14.4766 22.1113 14.4766 22.1156C14.4766 22.1199 14.4766 22.1241 14.4766 22.1284C14.4766 22.1327 14.4766 22.1369 14.4766 22.1412C14.4766 22.1454 14.4766 22.1497 14.4766 22.154C14.4766 22.1582 14.4766 22.1625 14.4766 22.1667C14.4766 22.171 14.4766 22.1753 14.4766 22.1795C14.4766 22.1838 14.4766 22.188 14.4766 22.1923C14.4766 22.1965 14.4766 22.2008 14.4766 22.2051C14.4766 22.2093 14.4766 22.2136 14.4766 22.2178C14.4766 22.2221 14.4766 22.2263 14.4766 22.2306C14.4766 22.2348 14.4766 22.2391 14.4766 22.2433C14.4766 22.2475 14.4766 22.2518 14.4766 22.256C14.4766 22.2603 14.4766 22.2645 14.4766 22.2688C14.4766 22.273 14.4766 22.2773 14.4766 22.2815C14.4766 22.2857 14.4766 22.29 14.4766 22.2942C14.4766 22.2985 14.4766 22.3027 14.4766 22.3069C14.4766 22.3112 14.4766 22.3154 14.4766 22.3196C14.4766 22.3239 14.4766 22.3281 14.4766 22.3323C14.4766 22.3366 14.4766 22.3408 14.4766 22.345C14.4766 22.3493 14.4766 22.3535 14.4766 22.3577C14.4766 22.3619 14.4766 22.3662 14.4766 22.3704C14.4766 22.3746 14.4766 22.3788 14.4766 22.3831C14.4766 22.3873 14.4766 22.3915 14.4766 22.3957C14.4766 22.4 14.4766 22.4042 14.4766 22.4084C14.4766 22.4126 14.4766 22.4168 14.4766 22.421C14.4766 22.4253 14.4766 22.4295 14.4766 22.4337C14.4766 22.4379 14.4766 22.4421 14.4766 22.4463C14.4766 22.4505 14.4766 22.4548 14.4766 22.459C14.4766 22.4632 14.4766 22.4674 14.4766 22.4716C14.4766 22.4758 14.4766 22.48 14.4766 22.4842C14.4766 22.4884 14.4766 22.4926 14.4766 22.4968C14.4766 22.501 14.4766 22.5052 14.4766 22.5094C14.4766 22.5137 14.4766 22.5179 14.4766 22.5221C14.4766 22.5263 14.4766 22.5305 14.4766 22.5347C14.4766 22.5388 14.4766 22.543 14.4766 22.5472C14.4766 22.5514 14.4766 22.5556 14.4766 22.5598C14.4766 22.564 14.4766 22.5682 14.4766 22.5724C14.4766 22.5766 14.4766 22.5808 14.4766 22.585C14.4766 22.5892 14.4766 22.5934 14.4766 22.5975C14.4766 22.6017 14.4766 22.6059 14.4766 22.6101C14.4766 22.6143 14.4766 22.6185 14.4766 22.6227C14.4766 22.6268 14.4766 22.631 14.4766 22.6352C14.4766 22.6394 14.4766 22.6436 14.4766 22.6477C14.4766 22.6519 14.4766 22.6561 14.4766 22.6603C14.4766 22.6645 14.4766 22.6686 14.4766 22.6728C14.4766 22.677 14.4766 22.6812 14.4766 22.6853C14.4766 22.6895 14.4766 22.6937 14.4766 22.6978C14.4766 22.702 14.4766 22.7062 14.4766 22.7104C14.4766 22.7145 14.4766 22.7187 14.4766 22.7229C14.4766 22.727 14.4766 22.7312 14.4766 22.7354H20.4766C20.4766 22.7312 20.4766 22.727 20.4766 22.7229C20.4766 22.7187 20.4766 22.7145 20.4766 22.7104C20.4766 22.7062 20.4766 22.702 20.4766 22.6978C20.4766 22.6937 20.4766 22.6895 20.4766 22.6853C20.4766 22.6812 20.4766 22.677 20.4766 22.6728C20.4766 22.6686 20.4766 22.6645 20.4766 22.6603C20.4766 22.6561 20.4766 22.6519 20.4766 22.6477C20.4766 22.6436 20.4766 22.6394 20.4766 22.6352C20.4766 22.631 20.4766 22.6268 20.4766 22.6227C20.4766 22.6185 20.4766 22.6143 20.4766 22.6101C20.4766 22.6059 20.4766 22.6017 20.4766 22.5975C20.4766 22.5934 20.4766 22.5892 20.4766 22.585C20.4766 22.5808 20.4766 22.5766 20.4766 22.5724C20.4766 22.5682 20.4766 22.564 20.4766 22.5598C20.4766 22.5556 20.4766 22.5514 20.4766 22.5472C20.4766 22.543 20.4766 22.5388 20.4766 22.5347C20.4766 22.5305 20.4766 22.5263 20.4766 22.5221C20.4766 22.5179 20.4766 22.5137 20.4766 22.5094C20.4766 22.5052 20.4766 22.501 20.4766 22.4968C20.4766 22.4926 20.4766 22.4884 20.4766 22.4842C20.4766 22.48 20.4766 22.4758 20.4766 22.4716C20.4766 22.4674 20.4766 22.4632 20.4766 22.459C20.4766 22.4548 20.4766 22.4505 20.4766 22.4463C20.4766 22.4421 20.4766 22.4379 20.4766 22.4337C20.4766 22.4295 20.4766 22.4253 20.4766 22.421C20.4766 22.4168 20.4766 22.4126 20.4766 22.4084C20.4766 22.4042 20.4766 22.4 20.4766 22.3957C20.4766 22.3915 20.4766 22.3873 20.4766 22.3831C20.4766 22.3788 20.4766 22.3746 20.4766 22.3704C20.4766 22.3662 20.4766 22.3619 20.4766 22.3577C20.4766 22.3535 20.4766 22.3493 20.4766 22.345C20.4766 22.3408 20.4766 22.3366 20.4766 22.3323C20.4766 22.3281 20.4766 22.3239 20.4766 22.3196C20.4766 22.3154 20.4766 22.3112 20.4766 22.3069C20.4766 22.3027 20.4766 22.2985 20.4766 22.2942C20.4766 22.29 20.4766 22.2857 20.4766 22.2815C20.4766 22.2773 20.4766 22.273 20.4766 22.2688C20.4766 22.2645 20.4766 22.2603 20.4766 22.256C20.4766 22.2518 20.4766 22.2475 20.4766 22.2433C20.4766 22.2391 20.4766 22.2348 20.4766 22.2306C20.4766 22.2263 20.4766 22.2221 20.4766 22.2178C20.4766 22.2136 20.4766 22.2093 20.4766 22.2051C20.4766 22.2008 20.4766 22.1965 20.4766 22.1923C20.4766 22.188 20.4766 22.1838 20.4766 22.1795C20.4766 22.1753 20.4766 22.171 20.4766 22.1667C20.4766 22.1625 20.4766 22.1582 20.4766 22.154C20.4766 22.1497 20.4766 22.1454 20.4766 22.1412C20.4766 22.1369 20.4766 22.1327 20.4766 22.1284C20.4766 22.1241 20.4766 22.1199 20.4766 22.1156C20.4766 22.1113 20.4766 22.107 20.4766 22.1028C20.4766 22.0985 20.4766 22.0942 20.4766 22.09C20.4766 22.0857 20.4766 22.0814 20.4766 22.0771C20.4766 22.0729 20.4766 22.0686 20.4766 22.0643C20.4766 22.06 20.4766 22.0558 20.4766 22.0515C20.4766 22.0472 20.4766 22.0429 20.4766 22.0387C20.4766 22.0344 20.4766 22.0301 20.4766 22.0258C20.4766 22.0215 20.4766 22.0172 20.4766 22.013C20.4766 22.0087 20.4766 22.0044 20.4766 22.0001C20.4766 21.9958 20.4766 21.9915 20.4766 21.9872C20.4766 21.9829 20.4766 21.9787 20.4766 21.9744C20.4766 21.9701 20.4766 21.9658 20.4766 21.9615C20.4766 21.9572 20.4766 21.9529 20.4766 21.9486C20.4766 21.9443 20.4766 21.94 20.4766 21.9357C20.4766 21.9314 20.4766 21.9271 20.4766 21.9228C20.4766 21.9185 20.4766 21.9142 20.4766 21.9099C20.4766 21.9056 20.4766 21.9013 20.4766 21.897C20.4766 21.8927 20.4766 21.8884 20.4766 21.8841C20.4766 21.8798 20.4766 21.8755 20.4766 21.8712C20.4766 21.8669 20.4766 21.8626 20.4766 21.8582C20.4766 21.8539 20.4766 21.8496 20.4766 21.8453C20.4766 21.841 20.4766 21.8367 20.4766 21.8324C20.4766 21.8281 20.4766 21.8237 20.4766 21.8194C20.4766 21.8151 20.4766 21.8108 20.4766 21.8065C20.4766 21.8022 20.4766 21.7978 20.4766 21.7935C20.4766 21.7892 20.4766 21.7849 20.4766 21.7806C20.4766 21.7762 20.4766 21.7719 20.4766 21.7676C20.4766 21.7633 20.4766 21.7589 20.4766 21.7546C20.4766 21.7503 20.4766 21.746 20.4766 21.7416C20.4766 21.7373 20.4766 21.733 20.4766 21.7286C20.4766 21.7243 20.4766 21.72 20.4766 21.7156C20.4766 21.7113 20.4766 21.707 20.4766 21.7026C20.4766 21.6983 20.4766 21.694 20.4766 21.6896C20.4766 21.6853 20.4766 21.6809 20.4766 21.6766C20.4766 21.6723 20.4766 21.6679 20.4766 21.6636C20.4766 21.6592 20.4766 21.6549 20.4766 21.6506C20.4766 21.6462 20.4766 21.6419 20.4766 21.6375C20.4766 21.6332 20.4766 21.6288 20.4766 21.6245C20.4766 21.6201 20.4766 21.6158 20.4766 21.6114C20.4766 21.6071 20.4766 21.6027 20.4766 21.5984C20.4766 21.594 20.4766 21.5897 20.4766 21.5853C20.4766 21.581 20.4766 21.5766 20.4766 21.5723C20.4766 21.5679 20.4766 21.5635 20.4766 21.5592C20.4766 21.5548 20.4766 21.5505 20.4766 21.5461C20.4766 21.5417 20.4766 21.5374 20.4766 21.533C20.4766 21.5287 20.4766 21.5243 20.4766 21.5199C20.4766 21.5156 20.4766 21.5112 20.4766 21.5068C20.4766 21.5025 20.4766 21.4981 20.4766 21.4937C20.4766 21.4894 20.4766 21.485 20.4766 21.4806C20.4766 21.4762 20.4766 21.4719 20.4766 21.4675C20.4766 21.4631 20.4766 21.4587 20.4766 21.4544C20.4766 21.45 20.4766 21.4456 20.4766 21.4412C20.4766 21.4369 20.4766 21.4325 20.4766 21.4281C20.4766 21.4237 20.4766 21.4193 20.4766 21.415C20.4766 21.4106 20.4766 21.4062 20.4766 21.4018C20.4766 21.3974 20.4766 21.393 20.4766 21.3887C20.4766 21.3843 20.4766 21.3799 20.4766 21.3755C20.4766 21.3711 20.4766 21.3667 20.4766 21.3623C20.4766 21.3579 20.4766 21.3536 20.4766 21.3492C20.4766 21.3448 20.4766 21.3404 20.4766 21.336C20.4766 21.3316 20.4766 21.3272 20.4766 21.3228C20.4766 21.3184 20.4766 21.314 20.4766 21.3096C20.4766 21.3052 20.4766 21.3008 20.4766 21.2964C20.4766 21.292 20.4766 21.2876 20.4766 21.2832C20.4766 21.2788 20.4766 21.2744 20.4766 21.27C20.4766 21.2656 20.4766 21.2612 20.4766 21.2568C20.4766 21.2524 20.4766 21.2479 20.4766 21.2435C20.4766 21.2391 20.4766 21.2347 20.4766 21.2303C20.4766 21.2259 20.4766 21.2215 20.4766 21.2171C20.4766 21.2127 20.4766 21.2082 20.4766 21.2038C20.4766 21.1994 20.4766 21.195 20.4766 21.1906C20.4766 21.1862 20.4766 21.1817 20.4766 21.1773C20.4766 21.1729 20.4766 21.1685 20.4766 21.1641C20.4766 21.1596 20.4766 21.1552 20.4766 21.1508C20.4766 21.1464 20.4766 21.1419 20.4766 21.1375C20.4766 21.1331 20.4766 21.1287 20.4766 21.1242C20.4766 21.1198 20.4766 21.1154 20.4766 21.1109C20.4766 21.1065 20.4766 21.1021 20.4766 21.0977C20.4766 21.0932 20.4766 21.0888 20.4766 21.0844C20.4766 21.0799 20.4766 21.0755 20.4766 21.071C20.4766 21.0666 20.4766 21.0622 20.4766 21.0577C20.4766 21.0533 20.4766 21.0489 20.4766 21.0444C20.4766 21.04 20.4766 21.0355 20.4766 21.0311C20.4766 21.0266 20.4766 21.0222 20.4766 21.0178C20.4766 21.0133 20.4766 21.0089 20.4766 21.0044C20.4766 21 20.4766 20.9955 20.4766 20.9911C20.4766 20.9866 20.4766 20.9822 20.4766 20.9777C20.4766 20.9733 20.4766 20.9688 20.4766 20.9644C20.4766 20.9599 20.4766 20.9555 20.4766 20.951C20.4766 20.9465 20.4766 20.9421 20.4766 20.9376C20.4766 20.9332 20.4766 20.9287 20.4766 20.9242C20.4766 20.9198 20.4766 20.9153 20.4766 20.9109C20.4766 20.9064 20.4766 20.9019 20.4766 20.8975C20.4766 20.893 20.4766 20.8885 20.4766 20.8841C20.4766 20.8796 20.4766 20.8751 20.4766 20.8707C20.4766 20.8662 20.4766 20.8617 20.4766 20.8573C20.4766 20.8528 20.4766 20.8483 20.4766 20.8439C20.4766 20.8394 20.4766 20.8349 20.4766 20.8304C20.4766 20.826 20.4766 20.8215 20.4766 20.817C20.4766 20.8125 20.4766 20.8081 20.4766 20.8036C20.4766 20.7991 20.4766 20.7946 20.4766 20.7901C20.4766 20.7857 20.4766 20.7812 20.4766 20.7767C20.4766 20.7722 20.4766 20.7677 20.4766 20.7632C20.4766 20.7588 20.4766 20.7543 20.4766 20.7498C20.4766 20.7453 20.4766 20.7408 20.4766 20.7363C20.4766 20.7318 20.4766 20.7273 20.4766 20.7228C20.4766 20.7183 20.4766 20.7139 20.4766 20.7094C20.4766 20.7049 20.4766 20.7004 20.4766 20.6959C20.4766 20.6914 20.4766 20.6869 20.4766 20.6824C20.4766 20.6779 20.4766 20.6734 20.4766 20.6689C20.4766 20.6644 20.4766 20.6599 20.4766 20.6554C20.4766 20.6509 20.4766 20.6464 20.4766 20.6419C20.4766 20.6374 20.4766 20.6329 20.4766 20.6284C20.4766 20.6239 20.4766 20.6193 20.4766 20.6148C20.4766 20.6103 20.4766 20.6058 20.4766 20.6013C20.4766 20.5968 20.4766 20.5923 20.4766 20.5878C20.4766 20.5833 20.4766 20.5788 20.4766 20.5742C20.4766 20.5697 20.4766 20.5652 20.4766 20.5607C20.4766 20.5562 20.4766 20.5517 20.4766 20.5471C20.4766 20.5426 20.4766 20.5381 20.4766 20.5336C20.4766 20.5291 20.4766 20.5245 20.4766 20.52C20.4766 20.5155 20.4766 20.511 20.4766 20.5064C20.4766 20.5019 20.4766 20.4974 20.4766 20.4929C20.4766 20.4883 20.4766 20.4838 20.4766 20.4793C20.4766 20.4747 20.4766 20.4702 20.4766 20.4657C20.4766 20.4611 20.4766 20.4566 20.4766 20.4521C20.4766 20.4475 20.4766 20.443 20.4766 20.4385C20.4766 20.4339 20.4766 20.4294 20.4766 20.4249C20.4766 20.4203 20.4766 20.4158 20.4766 20.4112C20.4766 20.4067 20.4766 20.4022 20.4766 20.3976C20.4766 20.3931 20.4766 20.3885 20.4766 20.384C20.4766 20.3794 20.4766 20.3749 20.4766 20.3704C20.4766 20.3658 20.4766 20.3613 20.4766 20.3567C20.4766 20.3522 20.4766 20.3476 20.4766 20.3431C20.4766 20.3385 20.4766 20.334 20.4766 20.3294C20.4766 20.3249 20.4766 20.3203 20.4766 20.3157C20.4766 20.3112 20.4766 20.3066 20.4766 20.3021C20.4766 20.2975 20.4766 20.293 20.4766 20.2884C20.4766 20.2838 20.4766 20.2793 20.4766 20.2747C20.4766 20.2702 20.4766 20.2656 20.4766 20.261C20.4766 20.2565 20.4766 20.2519 20.4766 20.2473C20.4766 20.2428 20.4766 20.2382 20.4766 20.2336C20.4766 20.2291 20.4766 20.2245 20.4766 20.2199C20.4766 20.2154 20.4766 20.2108 20.4766 20.2062C20.4766 20.2017 20.4766 20.1971 20.4766 20.1925C20.4766 20.1879 20.4766 20.1834 20.4766 20.1788C20.4766 20.1742 20.4766 20.1696 20.4766 20.1651C20.4766 20.1605 20.4766 20.1559 20.4766 20.1513C20.4766 20.1467 20.4766 20.1422 20.4766 20.1376C20.4766 20.133 20.4766 20.1284 20.4766 20.1238C20.4766 20.1192 20.4766 20.1147 20.4766 20.1101C20.4766 20.1055 20.4766 20.1009 20.4766 20.0963C20.4766 20.0917 20.4766 20.0871 20.4766 20.0825C20.4766 20.0779 20.4766 20.0734 20.4766 20.0688C20.4766 20.0642 20.4766 20.0596 20.4766 20.055C20.4766 20.0504 20.4766 20.0458 20.4766 20.0412C20.4766 20.0366 20.4766 20.032 20.4766 20.0274C20.4766 20.0228 20.4766 20.0182 20.4766 20.0136C20.4766 20.009 20.4766 20.0044 20.4766 19.9998C20.4766 19.9952 20.4766 19.9906 20.4766 19.986C20.4766 19.9814 20.4766 19.9768 20.4766 19.9722C20.4766 19.9675 20.4766 19.9629 20.4766 19.9583C20.4766 19.9537 20.4766 19.9491 20.4766 19.9445C20.4766 19.9399 20.4766 19.9353 20.4766 19.9307C20.4766 19.926 20.4766 19.9214 20.4766 19.9168C20.4766 19.9122 20.4766 19.9076 20.4766 19.903C20.4766 19.8983 20.4766 19.8937 20.4766 19.8891C20.4766 19.8845 20.4766 19.8799 20.4766 19.8752C20.4766 19.8706 20.4766 19.866 20.4766 19.8614C20.4766 19.8567 20.4766 19.8521 20.4766 19.8475C20.4766 19.8429 20.4766 19.8382 20.4766 19.8336C20.4766 19.829 20.4766 19.8243 20.4766 19.8197C20.4766 19.8151 20.4766 19.8105 20.4766 19.8058C20.4766 19.8012 20.4766 19.7966 20.4766 19.7919C20.4766 19.7873 20.4766 19.7826 20.4766 19.778C20.4766 19.7734 20.4766 19.7687 20.4766 19.7641C20.4766 19.7595 20.4766 19.7548 20.4766 19.7502C20.4766 19.7455 20.4766 19.7409 20.4766 19.7362C20.4766 19.7316 20.4766 19.727 20.4766 19.7223C20.4766 19.7177 20.4766 19.713 20.4766 19.7084C20.4766 19.7037 20.4766 19.6991 20.4766 19.6944C20.4766 19.6898 20.4766 19.6851 20.4766 19.6805C20.4766 19.6758 20.4766 19.6712 20.4766 19.6665C20.4766 19.6619 20.4766 19.6572 20.4766 19.6525C20.4766 19.6479 20.4766 19.6432 20.4766 19.6386C20.4766 19.6339 20.4766 19.6293 20.4766 19.6246C20.4766 19.6199 20.4766 19.6153 20.4766 19.6106C20.4766 19.6059 20.4766 19.6013 20.4766 19.5966C20.4766 19.592 20.4766 19.5873 20.4766 19.5826C20.4766 19.578 20.4766 19.5733 20.4766 19.5686C20.4766 19.5639 20.4766 19.5593 20.4766 19.5546C20.4766 19.5499 20.4766 19.5453 20.4766 19.5406C20.4766 19.5359 20.4766 19.5312 20.4766 19.5266C20.4766 19.5219 20.4766 19.5172 20.4766 19.5125C20.4766 19.5079 20.4766 19.5032 20.4766 19.4985C20.4766 19.4938 20.4766 19.4891 20.4766 19.4845C20.4766 19.4798 20.4766 19.4751 20.4766 19.4704C20.4766 19.4657 20.4766 19.461 20.4766 19.4564C20.4766 19.4517 20.4766 19.447 20.4766 19.4423C20.4766 19.4376 20.4766 19.4329 20.4766 19.4282C20.4766 19.4235 20.4766 19.4189 20.4766 19.4142C20.4766 19.4095 20.4766 19.4048 20.4766 19.4001C20.4766 19.3954 20.4766 19.3907 20.4766 19.386C20.4766 19.3813 20.4766 19.3766 20.4766 19.3719C20.4766 19.3672 20.4766 19.3625 20.4766 19.3578C20.4766 19.3531 20.4766 19.3484 20.4766 19.3437C20.4766 19.339 20.4766 19.3343 20.4766 19.3296C20.4766 19.3249 20.4766 19.3202 20.4766 19.3155C20.4766 19.3108 20.4766 19.3061 20.4766 19.3013C20.4766 19.2966 20.4766 19.2919 20.4766 19.2872C20.4766 19.2825 20.4766 19.2778 20.4766 19.2731C20.4766 19.2684 20.4766 19.2637 20.4766 19.2589C20.4766 19.2542 20.4766 19.2495 20.4766 19.2448C20.4766 19.2401 20.4766 19.2354 20.4766 19.2306C20.4766 19.2259 20.4766 19.2212 20.4766 19.2165C20.4766 19.2118 20.4766 19.207 20.4766 19.2023C20.4766 19.1976 20.4766 19.1929 20.4766 19.1881C20.4766 19.1834 20.4766 19.1787 20.4766 19.1739C20.4766 19.1692 20.4766 19.1645 20.4766 19.1598C20.4766 19.155 20.4766 19.1503 20.4766 19.1456C20.4766 19.1408 20.4766 19.1361 20.4766 19.1314C20.4766 19.1266 20.4766 19.1219 20.4766 19.1172C20.4766 19.1124 20.4766 19.1077 20.4766 19.1029C20.4766 19.0982 20.4766 19.0935 20.4766 19.0887C20.4766 19.084 20.4766 19.0792 20.4766 19.0745C20.4766 19.0698 20.4766 19.065 20.4766 19.0603C20.4766 19.0555 20.4766 19.0508 20.4766 19.046C20.4766 19.0413 20.4766 19.0365 20.4766 19.0318C20.4766 19.027 20.4766 19.0223 20.4766 19.0175C20.4766 19.0128 20.4766 19.008 20.4766 19.0033C20.4766 18.9985 20.4766 18.9938 20.4766 18.989C20.4766 18.9843 20.4766 18.9795 20.4766 18.9748C20.4766 18.97 20.4766 18.9652 20.4766 18.9605C20.4766 18.9557 20.4766 18.951 20.4766 18.9462C20.4766 18.9414 20.4766 18.9367 20.4766 18.9319C20.4766 18.9271 20.4766 18.9224 20.4766 18.9176C20.4766 18.9128 20.4766 18.9081 20.4766 18.9033C20.4766 18.8985 20.4766 18.8938 20.4766 18.889C20.4766 18.8842 20.4766 18.8795 20.4766 18.8747C20.4766 18.8699 20.4766 18.8651 20.4766 18.8604C20.4766 18.8556 20.4766 18.8508 20.4766 18.846C20.4766 18.8413 20.4766 18.8365 20.4766 18.8317C20.4766 18.8269 20.4766 18.8221 20.4766 18.8174C20.4766 18.8126 20.4766 18.8078 20.4766 18.803C20.4766 18.7982 20.4766 18.7935 20.4766 18.7887C20.4766 18.7839 20.4766 18.7791 20.4766 18.7743C20.4766 18.7695 20.4766 18.7647 20.4766 18.7599C20.4766 18.7552 20.4766 18.7504 20.4766 18.7456C20.4766 18.7408 20.4766 18.736 20.4766 18.7312C20.4766 18.7264 20.4766 18.7216 20.4766 18.7168C20.4766 18.712 20.4766 18.7072 20.4766 18.7024C20.4766 18.6976 20.4766 18.6928 20.4766 18.688C20.4766 18.6832 20.4766 18.6784 20.4766 18.6736C20.4766 18.6688 20.4766 18.664 20.4766 18.6592C20.4766 18.6544 20.4766 18.6496 20.4766 18.6448C20.4766 18.64 20.4766 18.6352 20.4766 18.6304C20.4766 18.6256 20.4766 18.6208 20.4766 18.616C20.4766 18.6111 20.4766 18.6063 20.4766 18.6015C20.4766 18.5967 20.4766 18.5919 20.4766 18.5871C20.4766 18.5823 20.4766 18.5774 20.4766 18.5726C20.4766 18.5678 20.4766 18.563 20.4766 18.5582C20.4766 18.5534 20.4766 18.5485 20.4766 18.5437C20.4766 18.5389 20.4766 18.5341 20.4766 18.5293C20.4766 18.5244 20.4766 18.5196 20.4766 18.5148C20.4766 18.51 20.4766 18.5051 20.4766 18.5003C20.4766 18.4955 20.4766 18.4906 20.4766 18.4858C20.4766 18.481 20.4766 18.4762 20.4766 18.4713C20.4766 18.4665 20.4766 18.4617 20.4766 18.4568C20.4766 18.452 20.4766 18.4472 20.4766 18.4423C20.4766 18.4375 20.4766 18.4327 20.4766 18.4278C20.4766 18.423 20.4766 18.4181 20.4766 18.4133C20.4766 18.4085 20.4766 18.4036 20.4766 18.3988C20.4766 18.3939 20.4766 18.3891 20.4766 18.3842C20.4766 18.3794 20.4766 18.3746 20.4766 18.3697C20.4766 18.3649 20.4766 18.36 20.4766 18.3552C20.4766 18.3503 20.4766 18.3455 20.4766 18.3406C20.4766 18.3358 20.4766 18.3309 20.4766 18.3261C20.4766 18.3212 20.4766 18.3164 20.4766 18.3115C20.4766 18.3067 20.4766 18.3018 20.4766 18.2969C20.4766 18.2921 20.4766 18.2872 20.4766 18.2824C20.4766 18.2775 20.4766 18.2726 20.4766 18.2678C20.4766 18.2629 20.4766 18.2581 20.4766 18.2532C20.4766 18.2483 20.4766 18.2435 20.4766 18.2386C20.4766 18.2337 20.4766 18.2289 20.4766 18.224C20.4766 18.2191 20.4766 18.2143 20.4766 18.2094C20.4766 18.2045 20.4766 18.1997 20.4766 18.1948C20.4766 18.1899 20.4766 18.185 20.4766 18.1802C20.4766 18.1753 20.4766 18.1704 20.4766 18.1656C20.4766 18.1607 20.4766 18.1558 20.4766 18.1509C20.4766 18.146 20.4766 18.1412 20.4766 18.1363C20.4766 18.1314 20.4766 18.1265 20.4766 18.1216C20.4766 18.1168 20.4766 18.1119 20.4766 18.107C20.4766 18.1021 20.4766 18.0972 20.4766 18.0923C20.4766 18.0874 20.4766 18.0826 20.4766 18.0777C20.4766 18.0728 20.4766 18.0679 20.4766 18.063C20.4766 18.0581 20.4766 18.0532 20.4766 18.0483C20.4766 18.0434 20.4766 18.0385 20.4766 18.0336C20.4766 18.0288 20.4766 18.0239 20.4766 18.019C20.4766 18.0141 20.4766 18.0092 20.4766 18.0043C20.4766 17.9994 20.4766 17.9945 20.4766 17.9896C20.4766 17.9847 20.4766 17.9798 20.4766 17.9749C20.4766 17.97 20.4766 17.9651 20.4766 17.9601C20.4766 17.9552 20.4766 17.9503 20.4766 17.9454C20.4766 17.9405 20.4766 17.9356 20.4766 17.9307C20.4766 17.9258 20.4766 17.9209 20.4766 17.916C20.4766 17.9111 20.4766 17.9061 20.4766 17.9012C20.4766 17.8963 20.4766 17.8914 20.4766 17.8865C20.4766 17.8816 20.4766 17.8767 20.4766 17.8717C20.4766 17.8668 20.4766 17.8619 20.4766 17.857C20.4766 17.8521 20.4766 17.8471 20.4766 17.8422C20.4766 17.8373 20.4766 17.8324 20.4766 17.8274C20.4766 17.8225 20.4766 17.8176 20.4766 17.8127C20.4766 17.8077 20.4766 17.8028 20.4766 17.7979C20.4766 17.793 20.4766 17.788 20.4766 17.7831C20.4766 17.7782 20.4766 17.7732 20.4766 17.7683C20.4766 17.7634 20.4766 17.7584 20.4766 17.7535C20.4766 17.7486 20.4766 17.7436 20.4766 17.7387C20.4766 17.7338 20.4766 17.7288 20.4766 17.7239C20.4766 17.7189 20.4766 17.714 20.4766 17.7091C20.4766 17.7041 20.4766 17.6992 20.4766 17.6942C20.4766 17.6893 20.4766 17.6843 20.4766 17.6794C20.4766 17.6745 20.4766 17.6695 20.4766 17.6646C20.4766 17.6596 20.4766 17.6547 20.4766 17.6497C20.4766 17.6448 20.4766 17.6398 20.4766 17.6349C20.4766 17.6299 20.4766 17.625 20.4766 17.62C20.4766 17.615 20.4766 17.6101 20.4766 17.6051C20.4766 17.6002 20.4766 17.5952 20.4766 17.5903C20.4766 17.5853 20.4766 17.5803 20.4766 17.5754C20.4766 17.5704 20.4766 17.5655 20.4766 17.5605C20.4766 17.5555 20.4766 17.5506 20.4766 17.5456C20.4766 17.5407 20.4766 17.5357 20.4766 17.5307C20.4766 17.5258 20.4766 17.5208 20.4766 17.5158C20.4766 17.5108 20.4766 17.5059 20.4766 17.5009C20.4766 17.4959 20.4766 17.491 20.4766 17.486C20.4766 17.481 20.4766 17.476 20.4766 17.4711C20.4766 17.4661 20.4766 17.4611 20.4766 17.4561C20.4766 17.4512 20.4766 17.4462 20.4766 17.4412C20.4766 17.4362 20.4766 17.4312 20.4766 17.4263C20.4766 17.4213 20.4766 17.4163 20.4766 17.4113C20.4766 17.4063 20.4766 17.4014 20.4766 17.3964C20.4766 17.3914 20.4766 17.3864 20.4766 17.3814C20.4766 17.3764 20.4766 17.3714 20.4766 17.3664C20.4766 17.3615 20.4766 17.3565 20.4766 17.3515C20.4766 17.3465 20.4766 17.3415 20.4766 17.3365C20.4766 17.3315 20.4766 17.3265 20.4766 17.3215C20.4766 17.3165 20.4766 17.3115 20.4766 17.3065C20.4766 17.3015 20.4766 17.2965 20.4766 17.2915C20.4766 17.2865 20.4766 17.2815 20.4766 17.2765C20.4766 17.2715 20.4766 17.2665 20.4766 17.2615C20.4766 17.2565 20.4766 17.2515 20.4766 17.2465C20.4766 17.2415 20.4766 17.2365 20.4766 17.2315C20.4766 17.2264 20.4766 17.2214 20.4766 17.2164C20.4766 17.2114 20.4766 17.2064 20.4766 17.2014C20.4766 17.1964 20.4766 17.1914 20.4766 17.1864C20.4766 17.1813 20.4766 17.1763 20.4766 17.1713C20.4766 17.1663 20.4766 17.1613 20.4766 17.1562C20.4766 17.1512 20.4766 17.1462 20.4766 17.1412C20.4766 17.1362 20.4766 17.1311 20.4766 17.1261C20.4766 17.1211 20.4766 17.1161 20.4766 17.111C20.4766 17.106 20.4766 17.101 20.4766 17.096C20.4766 17.0909 20.4766 17.0859 20.4766 17.0809C20.4766 17.0758 20.4766 17.0708 20.4766 17.0658C20.4766 17.0608 20.4766 17.0557 20.4766 17.0507C20.4766 17.0457 20.4766 17.0406 20.4766 17.0356C20.4766 17.0305 20.4766 17.0255 20.4766 17.0205C20.4766 17.0154 20.4766 17.0104 20.4766 17.0054C20.4766 17.0003 20.4766 16.9953 20.4766 16.9902C20.4766 16.9852 20.4766 16.9801 20.4766 16.9751C20.4766 16.9701 20.4766 16.965 20.4766 16.96C20.4766 16.9549 20.4766 16.9499 20.4766 16.9448C20.4766 16.9398 20.4766 16.9347 20.4766 16.9297C20.4766 16.9246 20.4766 16.9196 20.4766 16.9145C20.4766 16.9095 20.4766 16.9044 20.4766 16.8993C20.4766 16.8943 20.4766 16.8892 20.4766 16.8842C20.4766 16.8791 20.4766 16.8741 20.4766 16.869C20.4766 16.8639 20.4766 16.8589 20.4766 16.8538C20.4766 16.8488 20.4766 16.8437 20.4766 16.8386C20.4766 16.8336 20.4766 16.8285 20.4766 16.8234C20.4766 16.8184 20.4766 16.8133 20.4766 16.8082C20.4766 16.8032 20.4766 16.7981 20.4766 16.793C20.4766 16.788 20.4766 16.7829 20.4766 16.7778C20.4766 16.7727 20.4766 16.7677 20.4766 16.7626C20.4766 16.7575 20.4766 16.7524 20.4766 16.7474C20.4766 16.7423 20.4766 16.7372 20.4766 16.7321C20.4766 16.7271 20.4766 16.722 20.4766 16.7169C20.4766 16.7118 20.4766 16.7067 20.4766 16.7017C20.4766 16.6966 20.4766 16.6915 20.4766 16.6864C20.4766 16.6813 20.4766 16.6762 20.4766 16.6712C20.4766 16.6661 20.4766 16.661 20.4766 16.6559C20.4766 16.6508 20.4766 16.6457 20.4766 16.6406C20.4766 16.6355 20.4766 16.6304 20.4766 16.6253C20.4766 16.6202 20.4766 16.6152 20.4766 16.6101C20.4766 16.605 20.4766 16.5999 20.4766 16.5948C20.4766 16.5897 20.4766 16.5846 20.4766 16.5795C20.4766 16.5744 20.4766 16.5693 20.4766 16.5642C20.4766 16.5591 20.4766 16.554 20.4766 16.5489C20.4766 16.5438 20.4766 16.5387 20.4766 16.5335C20.4766 16.5284 20.4766 16.5233 20.4766 16.5182C20.4766 16.5131 20.4766 16.508 20.4766 16.5029C20.4766 16.4978 20.4766 16.4927 20.4766 16.4876C20.4766 16.4825 20.4766 16.4773 20.4766 16.4722C20.4766 16.4671 20.4766 16.462 20.4766 16.4569C20.4766 16.4518 20.4766 16.4466 20.4766 16.4415C20.4766 16.4364 20.4766 16.4313 20.4766 16.4262C20.4766 16.421 20.4766 16.4159 20.4766 16.4108C20.4766 16.4057 20.4766 16.4006 20.4766 16.3954C20.4766 16.3903 20.4766 16.3852 20.4766 16.3801C20.4766 16.3749 20.4766 16.3698 20.4766 16.3647C20.4766 16.3595 20.4766 16.3544 20.4766 16.3493C20.4766 16.3441 20.4766 16.339 20.4766 16.3339C20.4766 16.3287 20.4766 16.3236 20.4766 16.3185C20.4766 16.3133 20.4766 16.3082 20.4766 16.3031C20.4766 16.2979 20.4766 16.2928 20.4766 16.2877C20.4766 16.2825 20.4766 16.2774 20.4766 16.2722C20.4766 16.2671 20.4766 16.2619 20.4766 16.2568C20.4766 16.2517 20.4766 16.2465 20.4766 16.2414C20.4766 16.2362 20.4766 16.2311 20.4766 16.2259C20.4766 16.2208 20.4766 16.2156 20.4766 16.2105C20.4766 16.2053 20.4766 16.2002 20.4766 16.195C20.4766 16.1899 20.4766 16.1847 20.4766 16.1796C20.4766 16.1744 20.4766 16.1693 20.4766 16.1641C20.4766 16.1589 20.4766 16.1538 20.4766 16.1486C20.4766 16.1435 20.4766 16.1383 20.4766 16.1331C20.4766 16.128 20.4766 16.1228 20.4766 16.1177C20.4766 16.1125 20.4766 16.1073 20.4766 16.1022C20.4766 16.097 20.4766 16.0918 20.4766 16.0867C20.4766 16.0815 20.4766 16.0763 20.4766 16.0712C20.4766 16.066 20.4766 16.0608 20.4766 16.0557C20.4766 16.0505 20.4766 16.0453 20.4766 16.0401C20.4766 16.035 20.4766 16.0298 20.4766 16.0246C20.4766 16.0194 20.4766 16.0143 20.4766 16.0091C20.4766 16.0039 20.4766 15.9987 20.4766 15.9936C20.4766 15.9884 20.4766 15.9832 20.4766 15.978C20.4766 15.9728 20.4766 15.9676 20.4766 15.9625C20.4766 15.9573 20.4766 15.9521 20.4766 15.9469C20.4766 15.9417 20.4766 15.9365 20.4766 15.9313C20.4766 15.9262 20.4766 15.921 20.4766 15.9158C20.4766 15.9106 20.4766 15.9054 20.4766 15.9002C20.4766 15.895 20.4766 15.8898 20.4766 15.8846C20.4766 15.8794 20.4766 15.8742 20.4766 15.869C20.4766 15.8638 20.4766 15.8586 20.4766 15.8534C20.4766 15.8482 20.4766 15.843 20.4766 15.8378C20.4766 15.8326 20.4766 15.8274 20.4766 15.8222C20.4766 15.817 20.4766 15.8118 20.4766 15.8066C20.4766 15.8014 20.4766 15.7962 20.4766 15.791C20.4766 15.7858 20.4766 15.7806 20.4766 15.7754C20.4766 15.7702 20.4766 15.765 20.4766 15.7597C20.4766 15.7545 20.4766 15.7493 20.4766 15.7441C20.4766 15.7389 20.4766 15.7337 20.4766 15.7285C20.4766 15.7233 20.4766 15.718 20.4766 15.7128C20.4766 15.7076 20.4766 15.7024 20.4766 15.6972C20.4766 15.6919 20.4766 15.6867 20.4766 15.6815C20.4766 15.6763 20.4766 15.6711 20.4766 15.6658C20.4766 15.6606 20.4766 15.6554 20.4766 15.6502C20.4766 15.6449 20.4766 15.6397 20.4766 15.6345C20.4766 15.6292 20.4766 15.624 20.4766 15.6188C20.4766 15.6136 20.4766 15.6083 20.4766 15.6031C20.4766 15.5979 20.4766 15.5926 20.4766 15.5874C20.4766 15.5822 20.4766 15.5769 20.4766 15.5717C20.4766 15.5664 20.4766 15.5612 20.4766 15.556C20.4766 15.5507 20.4766 15.5455 20.4766 15.5402C20.4766 15.535 20.4766 15.5298 20.4766 15.5245C20.4766 15.5193 20.4766 15.514 20.4766 15.5088H14.4766ZM14.4766 22.7354C14.4766 24.8529 14.4604 26.754 14.4283 28.4399L20.4272 28.5542C20.4602 26.8222 20.4766 24.8821 20.4766 22.7354H14.4766ZM17.4277 31.4971C19.95 31.4971 22.3233 31.0134 24.4937 29.9897L21.934 24.5631C20.6539 25.1669 19.1698 25.4971 17.4277 25.4971V31.4971ZM24.4839 29.9943C26.5674 29.0207 28.3793 27.7048 29.8831 26.0406L25.4313 22.018C24.4937 23.0556 23.3434 23.9045 21.9438 24.5585L24.4839 29.9943ZM29.895 26.0273C31.3707 24.3746 32.5041 22.4821 33.2972 20.3736L27.6813 18.2612C27.1398 19.7009 26.3852 20.9496 25.4194 22.0312L29.895 26.0273ZM33.2972 20.3736C34.0943 18.2544 34.4902 16.0405 34.4902 13.751H28.4902C28.4902 15.3351 28.2188 16.8322 27.6813 18.2612L33.2972 20.3736ZM34.4902 13.751C34.4902 12.2343 34.2801 10.7625 33.844 9.35013L28.1111 11.1206C28.3585 11.9218 28.4902 12.7937 28.4902 13.751H34.4902ZM33.8589 9.40016C33.4298 7.91962 32.7447 6.57037 31.7797 5.39854L27.1481 9.21279C27.5502 9.70111 27.8742 10.305 28.0961 11.0705L33.8589 9.40016ZM31.7977 5.42065C30.8118 4.20008 29.5787 3.25736 28.1493 2.58733L25.6027 8.02009C26.2566 8.32662 26.7487 8.71854 27.13 9.19068L31.7977 5.42065ZM28.2005 2.61194C26.6808 1.86413 24.9959 1.54688 23.2383 1.54688V7.54688C24.2802 7.54688 25.0204 7.73418 25.5515 7.99548L28.2005 2.61194ZM23.2383 1.54688C21.4332 1.54688 19.6661 1.89094 17.9533 2.55591L20.1248 8.14917C21.1789 7.73992 22.2113 7.54688 23.2383 7.54688V1.54688ZM17.9421 2.56028C16.227 3.23407 14.6325 4.22618 13.156 5.49176L17.0608 10.0473C18.0908 9.16444 19.1167 8.54523 20.136 8.14479L17.9421 2.56028ZM13.1413 5.50443C11.6693 6.78282 10.349 8.33162 9.16595 10.1152L14.1661 13.4316C15.099 12.0251 16.0736 10.9047 17.0755 10.0346L13.1413 5.50443ZM9.1542 10.1331C7.96707 11.9509 6.95986 14.0257 6.11478 16.3321L11.7485 18.3964C12.4659 16.4384 13.2816 14.7861 14.1778 13.4138L9.1542 10.1331ZM6.10788 16.3512C5.27193 18.6811 4.62898 21.2527 4.16533 24.0517L10.0847 25.0322C10.4999 22.5253 11.0614 20.3117 11.7554 18.3774L6.10788 16.3512ZM4.16291 24.0666C3.71032 26.8866 3.49023 29.9535 3.49023 33.2578H9.49023C9.49023 30.2145 9.69333 27.4709 10.0871 25.0174L4.16291 24.0666ZM3.49023 33.2578C3.49023 34.7203 3.55988 36.1546 3.70044 37.5602L9.67066 36.9632C9.5508 35.7646 9.49023 34.5297 9.49023 33.2578H3.49023ZM3.70483 37.6013C3.86909 39.0431 4.14028 40.3909 4.53843 41.6251L10.2487 39.7831C9.99579 38.9991 9.79498 38.0519 9.66627 36.9221L3.70483 37.6013ZM4.54287 41.6388C4.96073 42.9132 5.56842 44.1066 6.44861 45.0935L10.9264 41.0998C10.7324 40.8823 10.4774 40.4806 10.2442 39.7695L4.54287 41.6388ZM6.47852 45.1266C7.59679 46.3435 9.08007 47 10.7383 47V41C10.7205 41 10.724 40.9984 10.7438 41.0024C10.7642 41.0065 10.7927 41.0147 10.8245 41.0287C10.8563 41.0427 10.8808 41.0578 10.8962 41.0691C10.9111 41.08 10.9105 41.082 10.8965 41.0668L6.47852 45.1266ZM10.7383 47C11.5991 47 12.4415 46.8216 13.2334 46.4586L10.7334 41.0042C10.7328 41.0045 10.7342 41.0039 10.7372 41.0029C10.7402 41.0019 10.7435 41.001 10.7466 41.0003C10.7498 40.9996 10.7513 40.9995 10.7507 40.9995C10.7501 40.9996 10.7461 41 10.7383 41V47ZM13.2334 46.4586C14.4434 45.904 15.1944 44.9162 15.6602 44.0365L10.3574 41.2291C10.3053 41.3277 10.2917 41.3268 10.3395 41.2756C10.392 41.2194 10.5191 41.1025 10.7334 41.0042L13.2334 46.4586ZM15.6767 44.0049C16.1704 43.0447 16.4716 41.8981 16.6734 40.724L10.7602 39.7076C10.6039 40.6169 10.4331 41.0816 10.3409 41.2608L15.6767 44.0049ZM16.6747 40.7164C16.8937 39.4224 16.9854 37.8263 16.9854 35.9922H10.9854C10.9854 37.6737 10.8979 38.8934 10.7589 39.7152L16.6747 40.7164ZM16.9854 35.9922C16.9854 34.8707 16.9771 33.7651 16.9606 32.6753L10.9613 32.7662C10.9773 33.8248 10.9854 34.9001 10.9854 35.9922H16.9854ZM16.9606 32.6759C16.9445 31.5994 16.9365 30.5564 16.9365 29.5469H10.9365C10.9365 30.5881 10.9448 31.661 10.9613 32.7655L16.9606 32.6759ZM14.333 26.5732C14.1814 26.553 14.1073 26.5349 14.0911 26.5305L12.5124 32.3191C12.8543 32.4123 13.2034 32.4757 13.54 32.5206L14.333 26.5732ZM14.0911 26.5305C13.8987 26.478 13.7224 26.4315 13.5655 26.3923L12.1103 32.2132C12.2138 32.239 12.3468 32.2739 12.5124 32.3191L14.0911 26.5305ZM13.7866 26.4567C13.7598 26.4478 13.7487 26.4433 13.7506 26.4441C13.7519 26.4446 13.7579 26.447 13.7679 26.4514C13.7779 26.4559 13.7933 26.463 13.8133 26.473L11.13 31.8395C11.3946 31.9718 11.6584 32.0719 11.8892 32.1488L13.7866 26.4567ZM15.3927 29.8399L15.6613 28.6924L9.81917 27.3251L9.55062 28.4726L15.3927 29.8399Z" fill="#86CA30"/>
</svg>
