<?xml version="1.0" encoding="UTF-8" standalone="no"?>
<!-- Created with Inkscape (http://www.inkscape.org/) -->

<svg
   xmlns:dc="http://purl.org/dc/elements/1.1/"
   xmlns:cc="http://creativecommons.org/ns#"
   xmlns:rdf="http://www.w3.org/1999/02/22-rdf-syntax-ns#"
   xmlns:svg="http://www.w3.org/2000/svg"
   xmlns="http://www.w3.org/2000/svg"
   xmlns:sodipodi="http://sodipodi.sourceforge.net/DTD/sodipodi-0.dtd"
   xmlns:inkscape="http://www.inkscape.org/namespaces/inkscape"
   version="1.1"
   id="svg2"
   xml:space="preserve"
   width="600"
   height="600"
   viewBox="0 0 599.99998 600"
   sodipodi:docname="SVG Sheldon Plankton.svg"
   inkscape:version="0.92.2 5c3e80d, 2017-08-06"><metadata
     id="metadata8"><rdf:RDF><cc:Work
         rdf:about=""><dc:format>image/svg+xml</dc:format><dc:type
           rdf:resource="http://purl.org/dc/dcmitype/StillImage" /><dc:title /></cc:Work></rdf:RDF></metadata><defs
     id="defs6" /><sodipodi:namedview
     pagecolor="#ffffff"
     bordercolor="#666666"
     borderopacity="1"
     objecttolerance="10"
     gridtolerance="10"
     guidetolerance="10"
     inkscape:pageopacity="0"
     inkscape:pageshadow="2"
     inkscape:window-width="1440"
     inkscape:window-height="774"
     id="namedview4"
     showgrid="false"
     inkscape:zoom="0.935"
     inkscape:cx="395.10789"
     inkscape:cy="321.10607"
     inkscape:window-x="0"
     inkscape:window-y="0"
     inkscape:window-maximized="0"
     inkscape:current-layer="g10" /><g
     id="g10"
     inkscape:groupmode="layer"
     inkscape:label="SB_MAINCHAR5_PLANKTON"
     transform="matrix(1.3333333,0,0,-1.3333333,0,600)"><g
       id="MAIN_CHARACTER_5"
       transform="matrix(1.9490625,0,0,1.9490625,-1064.4262,-579.01903)"
       inkscape:label="SB_MAINCHAR5_PLANKTON"
       sodipodi:insensitive="true"><title
         id="title142">Plankton</title><g
         transform="translate(621.8465,396.73172)"
         id="g12"><path
           inkscape:connector-curvature="0"
           id="path14"
           style="fill:#231f20;fill-opacity:1;fill-rule:nonzero;stroke:none"
           d="M 0,0 C 0.365,-0.926 0.223,-1.516 0.196,-1.837 0.132,-2.523 -0.06,-3.212 -0.35,-3.838 c -0.576,-1.245 -1.572,-2.277 -2.775,-2.929 -0.413,-3.264 0.033,-6.389 0.24,-9.825 l 20.199,0.412 c -0.103,3.401 0.068,6.494 0.48,9.894 C 11.439,-5.049 5.703,-3.092 0,0 Z m 84.604,104.912 c 4.877,0.928 10.14,1.34 14.811,1.099 -4.053,-1.065 -9.107,-1.629 -13.23,-2.933 l 1.035,-1.43 -1.635,-0.57 -1.116,1.531 c 0,0 -2.339,-0.832 -4.6,-1.717 -4.225,-1.683 -8.52,-3.572 -11.715,-7.419 l 1.22,-0.476 -0.867,-1.555 -1.245,0.451 C 65.544,88.492 63.846,85.127 62.387,81.307 l 2.16,-0.451 -0.831,-2.253 -2.09,0.404 C 59.427,74.678 58.158,70.216 56.785,65.51 l 3.543,-0.077 -0.429,-2.059 c 0,0 -2.668,-0.098 -3.767,-0.166 -0.961,-3.229 -1.809,-6.571 -2.405,-9.962 4.912,-0.79 9.447,-2.577 13.123,-6.115 1.201,-1.167 2.782,-2.507 3.642,-4.019 2.095,3.676 3.992,7.952 6.397,11.56 -0.985,0.959 -2.619,2.113 -2.619,2.113 l 1.118,1.767 2.661,-1.596 c 1.735,3.589 9.481,14.669 9.481,14.669 -0.652,0.494 -3.355,2.685 -3.355,2.685 l 1.717,1.804 3.042,-2.248 c 2.241,3.248 6.806,8.133 10.31,11.946 -0.785,0.808 -1.682,2.326 -1.682,2.326 l 1.843,1.802 2.141,-2.479 c 6.904,3.883 15.5,5.655 24.226,4.384 l -0.703,3.406 2.379,-0.37 c 0.584,-1.099 0.858,-2.336 1.305,-3.469 6.801,-0.688 12.985,-2.92 18.963,-5.531 l -0.242,-0.241 c -6.017,1.434 -11.875,2.253 -18.161,2.321 l 0.237,-2.726 c 0,0 -1.896,-0.144 -2.584,0.062 l -0.396,2.911 c -7.212,-0.24 -15.576,-0.678 -21.314,-4.87 0.222,-0.379 2.25,-2.673 2.25,-2.673 l -1.907,-1.62 -2.543,2.473 c -3.022,-3.642 -6.511,-7.44 -9.053,-11.356 0.722,-0.839 2.166,-1.956 2.166,-1.956 l -1.584,-2.118 -2.109,1.655 c -3.64,-4.019 -6.922,-9.129 -9.876,-13.801 0.944,-0.558 2.732,-2.345 2.732,-2.345 l -1.169,-1.58 c 0,0 -1.683,1.236 -2.713,1.649 -2.886,-4.122 -7.463,-13.95 -7.477,-14.239 -0.017,-0.379 0.101,-0.769 0.297,-1.082 1.511,-4.191 0.859,-8.932 0.069,-13.122 C 73.007,16.166 69.383,9.573 66.549,3.054 65.387,0.379 64.282,-2.32 63.23,-5.04 c -2.051,-5.303 -3.931,-10.694 -5.518,-16.155 -2.645,-9.104 -1.339,-18.962 -4.122,-27.859 -0.825,-2.509 -2.507,-4.673 -4.294,-6.768 0.601,-1.109 1.103,-2.273 1.52,-3.462 0.737,-2.107 1.217,-4.287 1.609,-6.479 0.202,-1.13 0.377,-2.264 0.55,-3.4 0.142,-0.924 0.355,-2.177 0.046,-3.086 -0.427,-1.258 -1.684,-2.209 -3.058,-1.991 -0.437,0.068 -0.678,0.356 -0.99,0.651 -0.787,0.749 -1.171,1.679 -1.678,2.623 -1.118,2.068 -2.019,4.244 -3.136,6.312 -0.566,1.044 -1.187,2.063 -1.905,3.011 -0.356,0.471 -0.735,0.927 -1.14,1.357 -0.174,0.187 -1.052,1.271 -1.3,1.234 l -3.298,-0.481 c -0.996,-1.202 -1.82,-2.645 -3.229,-3.125 -2.129,0.102 -3.916,0.102 -6.252,0 -0.351,-0.016 -0.8,-4.853 -0.847,-5.355 -0.084,-0.907 -0.14,-1.818 -0.176,-2.727 -0.036,-0.975 0.227,-1.951 -0.282,-2.847 -1.194,-2.109 -3.107,-1.496 -4.234,0.268 -0.558,0.875 -0.878,1.884 -1.155,2.875 -0.233,0.831 -0.452,1.668 -0.649,2.507 -0.399,1.706 -0.719,3.432 -0.9,5.176 -10.17,-0.173 -19.651,0.619 -29.854,1.167 l -21.606,26.692 c -0.687,1.031 -1.478,2.027 -1.306,3.402 2.061,4.602 3.125,9.583 5.427,14.084 3.886,0.432 10.107,0.536 10.107,0.536 -5.313,7.981 -17.846,24.266 -18.248,25.021 -0.401,0.756 0.411,1.719 0.411,1.719 -4.842,8.003 -15.174,23.03 -15.332,23.436 -0.238,0.607 -0.16,1.056 -0.16,1.056 -3.47,5.565 -11.302,16.49 -11.474,16.49 -1.91,-0.403 -4.542,-0.512 -4.981,2.038 -0.122,0.708 -0.045,1.488 0.103,2.187 0.288,1.346 1.177,2.588 2.305,3.362 1.073,0.735 3.047,1.342 4.29,0.658 1.375,-0.757 2.096,-2.199 1.993,-3.78 -0.048,-0.608 -0.359,-1.344 -0.655,-1.842 0,0 7.56,-11.245 11.442,-16.467 1.238,0.034 2.116,-0.775 2.46,-2.012 l 0.528,-0.943 13.776,-22.123 c 1.237,0.206 2.233,-0.823 2.783,-1.786 l 5.359,-7.18 10.133,-13.432 c 1.512,-2.13 2.852,-4.328 4.535,-6.354 h 1.925 c 0,0 -0.277,6.732 -0.928,9.55 -0.046,0.192 -1.891,0.956 -2.149,1.141 -0.696,0.5 -1.306,1.108 -1.74,1.853 -0.772,1.329 -1.344,3.489 -0.543,4.941 0.082,0.149 -0.941,1.55 -1.223,2.584 -0.267,0.984 -0.566,1.967 -0.669,2.985 -0.202,1.996 -0.435,4.945 1.696,6.003 2.594,1.287 5.854,-0.817 8.097,-1.954 7.729,-3.915 15.047,-8.416 23.326,-10.786 -0.614,0.176 3.265,15.997 3.656,17.45 1.553,5.795 3.516,11.485 6.033,16.935 3.172,6.867 7.6,14.469 15.388,16.972 l 3.847,1.236 c 0.996,3.572 1.631,7.542 2.765,11.081 l -3.464,-0.04 0.561,2.15 3.538,0.104 c 0.996,4.557 2.572,9.824 4.794,14.818 -1.202,0.309 -3.66,0.675 -3.66,0.675 l 0.687,1.82 3.848,-0.515 c 0,0 4.475,9.945 5.873,11.714 l -1.235,0.481 0.743,1.347 1.381,-0.507 c 5.27,5.068 14.039,8.139 19.396,9.341 l -1.081,1.362 1.478,0.583 c 0,0 0.921,-0.893 1.436,-1.58" /></g><g
         transform="translate(705.44824,500.0744)"
         id="g16"><path
           inkscape:connector-curvature="0"
           id="path18"
           style="fill:#00613b;fill-opacity:1;fill-rule:nonzero;stroke:none"
           d="m 0,0 c -5.84,-2.302 -12.355,-3.893 -16.58,-9.286 l -1.867,0.624 c 5.152,4.946 11.559,7.668 18.154,9.007 L 0,0" /></g><g
         transform="translate(687.68933,489.31042)"
         id="g20"><path
           inkscape:connector-curvature="0"
           id="path22"
           style="fill:#00613b;fill-opacity:1;fill-rule:nonzero;stroke:none"
           d="m 0,0 c -1.889,-3.436 -3.825,-7.39 -5.199,-11.031 l -2.452,0.451 c 1.547,3.779 3.607,7.677 5.841,11.216 L 0,0" /></g><g
         transform="translate(747.81512,487.07843)"
         id="g24"><path
           inkscape:connector-curvature="0"
           id="path26"
           style="fill:#00613b;fill-opacity:1;fill-rule:nonzero;stroke:none"
           d="M 0,0 C 0.07,-0.241 0.173,-0.481 0.173,-0.755 -6.835,-0.928 -16.43,-1.501 -22.018,-5.6 l -1.237,1.477 C -18.175,-0.556 -6.828,1.335 0,0" /></g><g
         transform="translate(758.88507,485.35846)"
         id="g28"><path
           inkscape:connector-curvature="0"
           id="path30"
           style="fill:#00613b;fill-opacity:1;fill-rule:nonzero;stroke:none"
           d="M 0,0 -7.943,0.896 -8.011,1.308 C -6.431,1.136 -1.477,0.48 0,0" /></g><g
         transform="translate(723.56219,479.31445)"
         id="g32"><path
           inkscape:connector-curvature="0"
           id="path34"
           style="fill:#00613b;fill-opacity:1;fill-rule:nonzero;stroke:none"
           d="m 0,0 c -3.333,-3.469 -6.492,-7.317 -9.24,-11.199 l -1.958,1.65 c 2.851,3.88 6.252,7.591 9.723,11.37 C -1.167,1.374 -0.266,0.383 0,0" /></g><g
         transform="translate(681.68829,476.12048)"
         id="g36"><path
           inkscape:connector-curvature="0"
           id="path38"
           style="fill:#00613b;fill-opacity:1;fill-rule:nonzero;stroke:none"
           d="m 0,0 c -1.684,-4.603 -3.635,-9.219 -5.009,-13.925 l -2.239,0.046 c 1.166,4.878 3.201,9.698 4.642,14.439 L 0,0" /></g><g
         transform="translate(703.12427,451.86752)"
         id="g40"><path
           inkscape:connector-curvature="0"
           id="path42"
           style="fill:#00613b;fill-opacity:1;fill-rule:nonzero;stroke:none"
           d="M 0,0 -1.821,1.065 C 0.996,5.977 4.362,10.684 7.42,15.493 L 9.55,13.843 0,0" /></g><g
         transform="translate(676.05536,459.90454)"
         id="g44"><path
           inkscape:connector-curvature="0"
           id="path46"
           style="fill:#00613b;fill-opacity:1;fill-rule:nonzero;stroke:none"
           d="M 0,0 C -0.657,-3.007 -1.696,-6.646 -2.211,-10.047 L -4.913,-10.339 -2.375,-0.056 0,0" /></g><g
         transform="translate(559.49677,454.27155)"
         id="g48"><path
           inkscape:connector-curvature="0"
           id="path50"
           style="fill:#c3cade;fill-opacity:1;fill-rule:nonzero;stroke:none"
           d="m 0,0 c -0.033,-1.408 -0.653,-2.851 -2.06,-3.4 -0.965,-0.288 -1.787,-0.825 -2.611,-0.31 -0.996,0.532 -0.289,1.746 0.07,2.447 0.515,1.006 1.405,1.595 2.445,1.986 C -1.51,0.967 0.024,1.032 0,0" /></g><g
         transform="translate(561.42175,452.86356)"
         id="g52"><path
           inkscape:connector-curvature="0"
           id="path54"
           style="fill:#c3cade;fill-opacity:1;fill-rule:nonzero;stroke:none"
           d="m 0,0 c 0.033,-1.855 -1.134,-3.607 -2.887,-4.363 -1.362,-0.588 -3.22,-0.692 -4.045,0.783 -0.05,0.088 -0.249,0.695 -0.249,0.694 0.962,-0.927 2.414,-0.387 3.539,0.171 1.741,0.868 2.44,2.818 2.473,4.604 C -0.412,1.649 -0.138,0.721 0,0" /></g><g
         transform="translate(701.67725,449.08759)"
         id="g56"><path
           inkscape:connector-curvature="0"
           id="path58"
           style="fill:#6fa48c;fill-opacity:1;fill-rule:nonzero;stroke:none"
           d="m 0,0 c -3.608,-6.012 -7.141,-12.163 -8.789,-18.999 0.101,-0.276 0.136,-0.826 0.583,-0.722 l 0.412,0.068 1.169,2.887 c 0.893,-13.983 -6.013,-25.147 -10.307,-37.17 l -5.874,-15.905 c -3.369,-9.121 -2.954,-18.804 -5.085,-28.135 -0.72,-3.16 -1.717,-6.218 -3.4,-8.966 -0.584,0.069 -0.515,1.168 -1.238,0.893 -0.033,-3.332 1.994,-6.011 2.646,-9.137 0.554,-2.037 0.894,-4.087 1.211,-6.171 0.13,-0.847 0.414,-1.917 0.087,-2.751 -0.253,-0.644 -0.942,-0.876 -1.497,-0.352 -0.579,0.541 -0.851,1.278 -1.157,1.988 -0.543,1.257 -1.203,2.543 -1.773,3.743 -0.449,0.946 -0.913,1.883 -1.411,2.804 -1.008,1.863 -2.151,3.662 -3.533,5.274 0.448,0.721 1.444,0.995 2.131,1.476 0.137,0.276 -0.206,0.378 -0.309,0.584 -1.752,-0.549 -3.505,-1.374 -5.359,-1.408 v 0.343 c 1.888,2.371 3.709,4.947 5.186,7.421 -0.412,1.958 -1.752,3.572 -2.644,5.358 -1.099,2.062 -2.577,3.917 -3.779,6.012 4.991,4.798 9.946,9.688 14.258,15.033 0.289,0.358 0.92,1.079 0.891,1.285 -0.35,0.022 -0.844,-0.561 -1.408,-1.001 -5.839,-4.557 -17.582,-18.842 -26.452,-24.214 -2.159,-0.703 -4.453,-0.645 -6.611,0.021 -1.184,0.364 -3.733,1.91 -1.801,2.903 1.228,0.631 3.165,0.358 4.501,0.477 1.504,0.133 3.37,0.331 4.735,1.031 8.726,8.072 17.555,16.42 24.803,25.901 0,0 -0.139,0.212 -0.518,0.263 -0.379,0.051 -1.028,-0.675 -1.028,-0.675 -4.741,-5.634 -9.859,-10.203 -15.011,-15.494 -4.02,5.291 -7.181,11.097 -10.959,16.558 -1.066,1.41 -2.541,0.069 -3.814,0.481 0.345,12.883 3.437,24.941 6.597,36.929 1.049,3.42 2.277,6.781 3.627,10.093 2.212,5.43 3.969,9.859 8.441,13.876 3.205,2.876 7.145,5.253 11.394,6.151 5.086,1.073 8.668,-0.581 13.225,-2.569 2.954,-1.649 5.6,-4.432 7.834,-7.18 l -0.964,-2.782 c 0.138,-0.069 0.242,-0.241 0.413,-0.275 l 0.722,0.824 c 2.507,4.913 5.289,9.791 8.003,14.532 C -1.267,0.959 -0.44,0.304 0,0" /></g><g
         transform="translate(572.62067,433.48862)"
         id="g60"><path
           inkscape:connector-curvature="0"
           id="path62"
           style="fill:#c3cade;fill-opacity:1;fill-rule:nonzero;stroke:none"
           d="m 0,0 c 0.515,-0.821 -0.027,-1.679 -0.345,-1.992 -0.317,-0.314 -0.756,-0.413 -1.064,-0.413 l -10.718,15.768 1.579,1.133 C -7.352,9.688 -3.538,4.603 0,0" /></g><g
         transform="translate(664.78638,436.61459)"
         id="g64"><path
           inkscape:connector-curvature="0"
           id="path66"
           style="fill:#231f20;fill-opacity:1;fill-rule:nonzero;stroke:none"
           d="m 0,0 c 4.81,-4.913 12.231,-3.985 18.894,-3.95 0.137,-0.687 -0.206,-1.065 -0.755,-1.34 0.651,-0.103 0.824,-0.653 1.167,-1.236 l -0.171,-1.65 c -0.859,-0.034 -1.65,-0.171 -2.405,-0.48 0.378,-0.035 0.653,-0.241 1.065,-0.171 L 17.656,-9 19.135,-9.412 c -0.034,-0.31 -0.104,-0.516 -0.104,-0.893 -1.993,-0.756 -4.155,-1.168 -6.321,-1.58 0.895,-3.917 0.824,-8.073 -0.274,-12.093 -0.811,-2.967 -1.994,-5.507 -4.603,-8.828 0.79,-0.619 1.511,-1.684 1.718,-2.714 C 9.413,-36.173 9,-36.551 8.416,-36.86 7.411,-37.212 6.15,-37.135 5.29,-36.345 c -3.411,-3.3 -7.841,-5.617 -12.618,-4.232 -1.445,0.418 -2.86,1.073 -4.146,1.849 -2.419,1.457 -4.057,4.217 -4.817,6.927 -1.127,0.003 -1.949,0.334 -2.5,0.953 -0.377,0.55 -0.377,1.236 -0.172,1.82 0.79,0.962 1.993,1.271 3.23,1.34 -0.721,8.073 3.126,16.763 9.721,21.436 0.448,0.412 1.065,0.481 1.477,0.962 l -2.714,4.053 c 0.275,0.791 0.998,-0.068 1.41,0.069 0.102,-0.172 0.308,-0.206 0.48,-0.309 l 0.07,0.068 -1.065,1.237 c 0.308,0.413 0.686,1.478 1.237,1.066 -0.105,0.481 0.445,0.755 0.755,0.995 L -3.366,1.237 -3.47,2.714 c 0.138,0.035 0.171,-0.103 0.242,-0.172 l 0.274,0.585 C -1.821,2.44 -1.202,0.894 0,0" /></g><g
         transform="translate(589.27966,408.51471)"
         id="g68"><path
           inkscape:connector-curvature="0"
           id="path70"
           style="fill:#c3cade;fill-opacity:1;fill-rule:nonzero;stroke:none"
           d="m 0,0 c 0.277,-0.515 0.241,-1.305 -0.171,-1.752 -0.549,-0.55 -1.169,-0.962 -1.993,-0.893 0,0 -1.835,3.73 -4.19,7.179 -2.355,3.45 -11.13,16.283 -11.612,17.142 1.032,0.172 2.552,1.546 2.611,2.474 C -14.986,24.052 -4.74,6.218 0,0" /></g><g
         transform="translate(675.84833,424.59161)"
         id="g72"><path
           inkscape:connector-curvature="0"
           id="path74"
           style="fill:#f0f47f;fill-opacity:1;fill-rule:nonzero;stroke:none"
           d="m 0,0 c 0.619,-0.79 0.619,-1.855 0.824,-2.817 0.309,-3.126 -0.104,-6.802 -1.236,-10.066 -1.099,-2.541 -2.55,-6.037 -3.986,-6.904 -7.454,5.633 -18.79,4.672 -18.79,4.672 -0.893,-0.207 -1.583,-0.089 -2.233,-0.309 -1.157,7.997 4.19,17.279 10.718,21.092 C -11.199,2.817 -6.272,0.562 0,0" /></g><g
         transform="translate(664.71741,414.28665)"
         id="g76"><path
           inkscape:connector-curvature="0"
           id="path78"
           style="fill:#f14829;fill-opacity:1;fill-rule:nonzero;stroke:none"
           d="m 0,0 c 0.826,-1.684 0.911,-4.538 -0.119,-6.151 -3.368,0.961 -6.847,1.443 -10.708,1.395 -0.516,2.301 0.076,4.617 1.587,6.301 C -6.547,4.544 -1.722,3.363 0,0" /></g><g
         transform="translate(662.89636,414.69867)"
         id="g80"><path
           inkscape:connector-curvature="0"
           id="path82"
           style="fill:#ffffff;fill-opacity:1;fill-rule:nonzero;stroke:none"
           d="m 0,0 c 0.207,-0.722 -0.307,-1.34 -0.927,-1.512 -0.617,-0.069 -1.271,0.241 -1.477,0.825 -0.206,0.721 0.344,1.34 0.928,1.511 C -0.858,0.893 -0.206,0.584 0,0" /></g><g
         transform="translate(672.68835,401.50671)"
         id="g84"><path
           inkscape:connector-curvature="0"
           id="path86"
           style="fill:#6fa48c;fill-opacity:1;fill-rule:nonzero;stroke:none"
           d="m 0,0 c -1.272,-0.343 -2.955,1.821 -3.54,-0.239 -3.022,-2.99 -7.282,-5.291 -11.851,-3.815 -3.95,1.134 -6.904,4.947 -7.832,8.726 -0.617,0.378 -1.511,0.344 -2.163,0.344 -0.07,0.583 0.584,0.79 0.996,0.893 C -15.596,8.038 -5.806,6.046 0,0" /></g><g
         transform="translate(625.6665,401.08173)"
         id="g88"><path
           inkscape:connector-curvature="0"
           id="path90"
           style="fill:#6fa48c;fill-opacity:1;fill-rule:nonzero;stroke:none"
           d="m 0,0 c 1.693,-0.783 3.403,-1.5 5.146,-2.34 0.731,-0.353 9.276,-3.975 9.31,-3.659 0,-0.001 -0.31,-2.885 -0.31,-2.885 -6.149,1.202 -18.437,6.454 -18.711,6.738 -0.448,0.466 -1.063,1.346 -1.917,1.896 -1.866,1.198 -2.87,1.122 -4.585,1.087 -0.345,1.065 -0.963,1.993 -1.752,2.886 -0.412,0.343 -0.887,0.621 -1.477,0.481 l -0.173,-0.241 c 2.527,-1.536 4.383,-10.82 -0.182,-7.873 -0.708,0.457 -1.262,1.514 -1.572,2.242 -0.808,1.905 -1.479,4.138 -0.983,6.225 C -15.927,9.941 -5.928,3.214 -3.655,1.881 -2.443,1.171 -1.227,0.568 0,0" /></g><g
         transform="translate(612.77759,378.07877)"
         id="g92"><path
           inkscape:connector-curvature="0"
           id="path94"
           style="fill:#c3cade;fill-opacity:1;fill-rule:nonzero;stroke:none"
           d="m 0,0 c -0.172,-1.511 -1.305,-2.576 -2.576,-3.194 -0.411,-0.026 -1.184,-0.397 -1.68,-0.168 -0.168,0.076 -13.888,20.588 -21.585,29.615 -0.323,0.452 -0.291,0.787 -0.291,0.787 0.612,-0.25 1.587,-0.179 2.129,0.215 0.789,0.48 1.72,1.25 1.571,2.184 0,0 0.364,0.189 0.652,-0.171 C -21.491,28.908 -2.233,3.607 0,0" /></g><g
         transform="translate(665.13037,403.05267)"
         id="g96"><path
           inkscape:connector-curvature="0"
           id="path98"
           style="fill:#231f20;fill-opacity:1;fill-rule:nonzero;stroke:none"
           d="m 0,0 c -3.985,0.378 -7.866,1.581 -11.885,1.82 1.568,0.633 3.317,0.666 4.98,0.516 C -5.353,2.194 -3.723,1.85 -2.253,1.323 -1.538,1.066 -0.575,0.558 0,0" /></g><g
         transform="translate(620.29156,398.33273)"
         id="g100"><path
           inkscape:connector-curvature="0"
           id="path102"
           style="fill:#c3cade;fill-opacity:1;fill-rule:nonzero;stroke:none"
           d="m 0,0 c 0.833,-1.378 1.044,-3.093 0.146,-4.589 -0.618,-1.031 -1.408,-1.649 -2.404,-2.303 -0.824,0.551 -1.614,1.752 -2.887,1.169 -0.686,-0.275 -0.959,-0.997 -1.063,-1.649 0.035,0.228 -2.156,0.729 -2.889,1.516 -0.949,1.018 -1.864,2.543 -1.406,3.98 0.722,-0.79 2.027,-1.717 3.161,-1.236 1.956,1.374 1.998,3.781 1.896,5.91 0,0 1.816,0.121 3.07,-0.375 C -1.142,1.933 -0.526,0.873 0,0" /></g><g
         transform="translate(651.66443,393.74374)"
         id="g104"><path
           inkscape:connector-curvature="0"
           id="path106"
           style="fill:#231f20;fill-opacity:1;fill-rule:nonzero;stroke:none"
           d="m 0,0 c 2.886,-2.886 6.904,-4.329 10.889,-3.298 3.127,0.652 5.737,2.439 8.246,4.466 0.343,0.137 0.549,-0.206 0.651,-0.413 0.31,-8.039 -2.989,-16.11 -10.03,-19.203 -2.398,-1.052 -5.468,-1.211 -7.876,-0.046 -1.235,0.598 -2.968,1.988 -3.802,3.059 -0.807,1.033 -1.4,2.232 -1.828,3.468 -0.97,2.788 -1.35,5.764 -1.313,8.703 0.023,1.886 0.127,5.142 1.285,6.733 0.347,0.481 0.655,0.24 0.957,-0.053 C -2.649,3.248 0,0 0,0" /></g><g
         transform="translate(651.11542,392.6777)"
         id="g108"><path
           inkscape:connector-curvature="0"
           id="path110"
           style="fill:#ffffff;fill-opacity:1;fill-rule:nonzero;stroke:none"
           d="m 0,0 -0.928,-4.053 c -0.927,0.584 -1.615,1.305 -2.474,2.164 -0.068,1.752 0.447,3.126 0.824,4.775 C -2.578,2.199 0,0 0,0" /></g><g
         transform="translate(669.56042,388.00876)"
         id="g112"><path
           inkscape:connector-curvature="0"
           id="path114"
           style="fill:#ffffff;fill-opacity:1;fill-rule:nonzero;stroke:none"
           d="m 0,0 c -0.285,-0.428 -1.768,-1.085 -2.927,-1.391 l 0.97,4.755 2.955,2.302 C 0.705,4.149 0.885,1.71 0,0" /></g><g
         transform="translate(617.38055,391.09778)"
         id="g116"><path
           inkscape:connector-curvature="0"
           id="path118"
           style="fill:#94a0ce;fill-opacity:1;fill-rule:nonzero;stroke:none"
           d="m 0,0 c 0,0 0.034,-7.489 0.344,-10.958 l -1.889,-0.172 c -0.653,3.573 -0.723,7.626 -0.996,11.302 0.24,0.24 0.584,0.618 0.892,0.653 C -0.961,0.859 -0.412,0.585 0,0" /></g><g
         transform="translate(655.47748,389.96475)"
         id="g120"><path
           inkscape:connector-curvature="0"
           id="path122"
           style="fill:#ffffff;fill-opacity:1;fill-rule:nonzero;stroke:none"
           d="m 0,0 c -0.103,-1.168 -0.447,-2.44 -0.653,-3.641 -1.27,0.343 -2.645,0.926 -3.813,1.752 l 0.928,3.847 C -2.508,1.168 -1.203,0.344 0,0" /></g><g
         transform="translate(665.68042,386.42575)"
         id="g124"><path
           inkscape:connector-curvature="0"
           id="path126"
           style="fill:#ffffff;fill-opacity:1;fill-rule:nonzero;stroke:none"
           d="m 0,0 c -0.992,-0.401 -2.748,-0.686 -4.193,-0.928 l 0.585,3.642 c 1.444,0.618 3.058,0.722 4.433,1.478 L 0,0" /></g><g
         transform="translate(661.07538,389.03775)"
         id="g128"><path
           inkscape:connector-curvature="0"
           id="path130"
           style="fill:#ffffff;fill-opacity:1;fill-rule:nonzero;stroke:none"
           d="m 0,0 -0.583,-3.608 c -1.443,0.068 -3.331,0.138 -4.844,0.585 l 0.723,3.435 C -3.463,0.073 -1.269,-0.036 0,0" /></g><g
         transform="translate(649.53448,380.72379)"
         id="g132"><path
           inkscape:connector-curvature="0"
           id="path134"
           style="fill:#ffffff;fill-opacity:1;fill-rule:nonzero;stroke:none"
           d="M 0,0 C -0.653,0.825 -0.869,1.906 -0.997,2.885 L 0.24,1.82 0,0" /></g><g
         transform="translate(654.48145,380.65479)"
         id="g136"><path
           inkscape:connector-curvature="0"
           id="path138"
           style="fill:#ffffff;fill-opacity:1;fill-rule:nonzero;stroke:none"
           d="m 0,0 c -0.188,-1.367 -0.447,-2.645 -0.652,-3.985 -1.444,0.447 -2.681,1.477 -3.54,2.817 L -3.78,1.306 C -2.508,0.859 -1.098,0.109 0,0" /></g><g
         transform="translate(666.60742,380.89481)"
         id="g140"><path
           inkscape:connector-curvature="0"
           id="path142"
           style="fill:#ffffff;fill-opacity:1;fill-rule:nonzero;stroke:none"
           d="m 0,0 c -0.343,-0.412 -0.688,-0.927 -1.168,-1.339 0.139,0.441 0.223,1.007 0.223,1.007 0.124,0.121 0.517,0.288 0.774,0.332 L 0,0" /></g><g
         transform="translate(659.6394,380.08078)"
         id="g144"><path
           inkscape:connector-curvature="0"
           id="path146"
           style="fill:#ffffff;fill-opacity:1;fill-rule:nonzero;stroke:none"
           d="m 0,0 c -0.129,-1.839 -0.434,-3.084 -0.692,-4.304 -1.615,-0.069 -2.817,0.069 -4.224,0.481 l 0.651,4.122 C -2.856,0.059 -1.374,0.103 0,0" /></g><g
         transform="translate(664.61536,380.31079)"
         id="g148"><path
           inkscape:connector-curvature="0"
           id="path150"
           style="fill:#ffffff;fill-opacity:1;fill-rule:nonzero;stroke:none"
           d="M 0,0 C 0.024,-0.556 -0.208,-1.687 -0.208,-1.687 -0.992,-2.786 -4.294,-4.122 -4.431,-4.19 l 0.481,3.847 C -2.749,-0.206 -1.168,-0.24 0,0" /></g><g
         transform="translate(639.81244,373.13184)"
         id="g152"><path
           inkscape:connector-curvature="0"
           id="path154"
           style="fill:#c3cade;fill-opacity:1;fill-rule:nonzero;stroke:none"
           d="m 0,0 -21.504,0.412 c 0.756,3.264 -2.92,3.676 -4.637,5.188 L -7.007,5.943 C -3.675,6.15 -0.274,5.84 3.057,6.355 2.131,4.191 1.271,2.027 0,0" /></g><g
         transform="translate(607.72858,374.05884)"
         id="g156"><path
           inkscape:connector-curvature="0"
           id="path158"
           style="fill:#c3cade;fill-opacity:1;fill-rule:nonzero;stroke:none"
           d="m 0,0 c -0.103,-0.136 -0.07,-0.343 -0.07,-0.515 l -15.252,0.103 c 0.412,1.649 1.134,3.298 1.89,4.775 3.263,-0.102 6.663,0.172 9.996,0.241 L 0,0" /></g><g
         transform="translate(648.71045,370.89981)"
         id="g160"><path
           inkscape:connector-curvature="0"
           id="path162"
           style="fill:#94a0ce;fill-opacity:1;fill-rule:nonzero;stroke:none"
           d="m 0,0 c -0.859,-2.028 -2.026,-3.917 -2.715,-6.012 l -5.529,7.935 3.126,5.909 C -3.161,5.564 -1.684,2.61 0,0" /></g><g
         transform="translate(617.20959,374.78079)"
         id="g164"><path
           inkscape:connector-curvature="0"
           id="path166"
           style="fill:#c3cade;fill-opacity:1;fill-rule:nonzero;stroke:none"
           d="m 0,0 c 0.378,-1.031 -0.104,-2.061 -0.653,-3.057 -1.168,-1.924 -3.436,-2.817 -5.531,-2.542 -0.549,0.068 -1.065,0.137 -1.476,0.584 -0.345,1.339 -0.686,3.535 -0.645,4.207 1.988,-0.058 4.186,1.911 4.698,3.865 C -2.323,2.078 -1.135,1.202 0,0" /></g><g
         transform="translate(607.83057,372.65179)"
         id="g168"><path
           inkscape:connector-curvature="0"
           id="path170"
           style="fill:#c3cade;fill-opacity:1;fill-rule:nonzero;stroke:none"
           d="m 0,0 c 0.171,-1.237 -0.205,-2.783 0.995,-3.539 1.135,-0.893 2.304,-1.134 3.78,-0.997 2.165,0.55 4.363,1.89 5.29,4.124 l 0.241,0.583 C 16.971,0.205 24.598,-0.241 31.571,-0.104 29.989,-2.955 28.169,-6.013 26.452,-8.83 H 9.482 c -9.413,0.104 -18.688,0.688 -28.033,1.41 l 2.783,7.66 C -10.718,0.412 -4.844,0.308 0,0" /></g><g
         transform="translate(597.02362,371.17682)"
         id="g172"><path
           inkscape:connector-curvature="0"
           id="path174"
           style="fill:#231f20;fill-opacity:1;fill-rule:nonzero;stroke:none"
           d="M 0,0 C 0.022,-0.11 0.031,-0.23 0.022,-0.36 -0.027,-1.119 -1.157,-2.112 -1.903,-1.514 -2.619,-0.941 -3.217,0.092 -2.168,0.702 -1.384,1.158 -0.193,0.912 0,0" /></g><g
         transform="translate(605.66656,371.0708)"
         id="g176"><path
           inkscape:connector-curvature="0"
           id="path178"
           style="fill:#231f20;fill-opacity:1;fill-rule:nonzero;stroke:none"
           d="M 0,0 C 0.475,-1.567 -4.136,-2.088 -2.886,0.412 -2.026,1.031 -0.343,1.134 0,0" /></g><g
         transform="translate(621.5885,371.56281)"
         id="g180"><path
           inkscape:connector-curvature="0"
           id="path182"
           style="fill:#231f20;fill-opacity:1;fill-rule:nonzero;stroke:none"
           d="M 0,0 C 0.286,-0.229 0.429,-0.57 0.267,-1.08 0.18,-1.358 -0.142,-1.571 -0.384,-1.705 -0.916,-2 -1.702,-2.149 -2.282,-1.913 -3.118,-1.572 -3.152,-0.678 -2.631,-0.064 -2.029,0.646 -0.706,0.56 0,0" /></g><g
         transform="translate(649.70648,358.29184)"
         id="g184"><path
           inkscape:connector-curvature="0"
           id="path186"
           style="fill:#94a0ce;fill-opacity:1;fill-rule:nonzero;stroke:none"
           d="m 0,0 c -0.103,-0.378 -0.516,-0.687 -0.825,-0.894 -0.377,0.551 -1.272,0.997 -1.821,0.585 -0.652,-0.652 -0.48,-1.65 -0.171,-2.405 -1.203,-1.065 -2.714,-1.752 -4.432,-1.305 L -14.6,5.359 c 1.717,2.748 2.818,5.737 4.878,8.347 L 0,0" /></g><g
         transform="translate(604.73657,371.21381)"
         id="g188"><path
           inkscape:connector-curvature="0"
           id="path190"
           style="fill:#c3cade;fill-opacity:1;fill-rule:nonzero;stroke:none"
           d="M 0,0 C 0.173,-0.233 0.059,-0.557 -0.566,-0.64 -1.157,-0.719 -2.081,-0.378 -1.16,0.101 -0.633,0.375 -0.174,0.233 0,0" /></g><g
         transform="translate(620.93958,371.07581)"
         id="g192"><path
           inkscape:connector-curvature="0"
           id="path194"
           style="fill:#c3cade;fill-opacity:1;fill-rule:nonzero;stroke:none"
           d="M 0,0 C 0.006,-0.027 0.01,-0.058 0.01,-0.09 0.02,-0.483 -0.623,-0.533 -0.845,-0.726 -1.633,-0.884 -1.842,-0.299 -1.202,0.054 -0.939,0.199 -0.103,0.471 0,0" /></g><g
         transform="translate(596.3136,371.0708)"
         id="g196"><path
           inkscape:connector-curvature="0"
           id="path198"
           style="fill:#c3cade;fill-opacity:1;fill-rule:nonzero;stroke:none"
           d="M 0,0 C -0.021,-0.409 -0.51,-0.976 -0.861,-1.039 -1.624,-1.176 -1.508,0.478 -0.491,0.422 -0.119,0.402 0.011,0.225 0,0" /></g><g
         transform="translate(631.63751,370.76181)"
         id="g200"><path
           inkscape:connector-curvature="0"
           id="path202"
           style="fill:#231f20;fill-opacity:1;fill-rule:nonzero;stroke:none"
           d="m 0,0 c 0.405,-0.676 0.412,-1.203 -0.275,-1.638 -0.535,-0.339 -1.318,-0.639 -1.924,-0.286 -0.412,0.24 -0.824,0.481 -0.929,0.996 C -3.376,0.321 -0.512,0.853 0,0" /></g><g
         transform="translate(630.98352,370.24683)"
         id="g204"><path
           inkscape:connector-curvature="0"
           id="path206"
           style="fill:#c3cade;fill-opacity:1;fill-rule:nonzero;stroke:none"
           d="M 0,0 C 0.072,-0.53 -0.875,-0.95 -1.269,-0.705 -1.804,-0.37 -1.358,0.103 -0.915,0.203 -0.76,0.238 -0.034,0.263 0,0" /></g><g
         transform="translate(654.13849,362.65482)"
         id="g208"><path
           inkscape:connector-curvature="0"
           id="path210"
           style="fill:#94a0ce;fill-opacity:1;fill-rule:nonzero;stroke:none"
           d="M 0,0 C -0.928,-1.305 -2.612,-2.543 -3.849,-3.951 L -7.73,1.51 C -6.768,3.4 -6.08,5.461 -4.844,7.179 -3.162,4.946 -1.616,2.405 0,0" /></g><g
         transform="translate(642.74042,364.87085)"
         id="g212"><path
           inkscape:connector-curvature="0"
           id="path214"
           style="fill:#231f20;fill-opacity:1;fill-rule:nonzero;stroke:none"
           d="M 0,0 C 0.292,-0.481 0.416,-1.042 0.157,-1.438 -0.729,-2.79 -2.504,-0.398 -1.862,0.669 -1.431,1.388 -0.486,0.8 0,0" /></g><g
         transform="translate(642.16943,364.60684)"
         id="g216"><path
           inkscape:connector-curvature="0"
           id="path218"
           style="fill:#94a0ce;fill-opacity:1;fill-rule:nonzero;stroke:none"
           d="m 0,0 c 0.105,-0.172 0.149,-0.371 0.057,-0.511 -0.316,-0.483 -0.949,0.37 -0.72,0.75 C -0.509,0.495 -0.172,0.286 0,0" /></g><g
         transform="translate(634.69452,363.23782)"
         id="g220"><path
           inkscape:connector-curvature="0"
           id="path222"
           style="fill:#94a0ce;fill-opacity:1;fill-rule:nonzero;stroke:none"
           d="m 0,0 6.835,-8.828 c -1.704,-0.216 -6.366,-0.291 -7.042,-2.376 -0.44,-1.36 1.713,-2.83 2.748,-3.395 2.647,-1.443 6.391,-2.13 9.242,-0.961 l 8.073,-12.231 c -0.791,-0.447 -1.786,0.036 -2.783,-0.24 l -6.287,0.103 c -2.645,2.199 -4.122,5.222 -6.493,7.42 -8.552,-0.31 -17.072,0.413 -25.728,0.413 0,-0.413 -0.345,-1.031 0.171,-1.409 1.615,-1.957 3.023,-4.054 4.878,-5.875 -2.268,0.242 -7.352,0.688 -7.352,0.688 l -5.599,6.836 c 0,0 -16.213,20.37 -16.078,20.92 C -38.784,0 -6.953,-0.934 0,0" /></g><g
         transform="translate(663.89337,347.57388)"
         id="g224"><path
           inkscape:connector-curvature="0"
           id="path226"
           style="fill:#94a0ce;fill-opacity:1;fill-rule:nonzero;stroke:none"
           d="m 0,0 c -1.099,-1.649 -2.129,-3.366 -3.401,-4.947 l -6.835,10.649 4.121,3.951 C -4.018,6.595 -2.027,3.229 0,0" /></g><g
         transform="translate(660.01239,342.04291)"
         id="g228"><path
           inkscape:connector-curvature="0"
           id="path230"
           style="fill:#94a0ce;fill-opacity:1;fill-rule:nonzero;stroke:none"
           d="m 0,0 c -1.409,-2.095 -3.024,-4.328 -4.706,-6.08 -2.921,3.744 -5.394,7.935 -8.246,11.851 2.062,1.478 4.088,3.264 6.116,5.051 L 0,0" /></g><g
         transform="translate(655.63245,346.09088)"
         id="g232"><path
           inkscape:connector-curvature="0"
           id="path234"
           style="fill:#231f20;fill-opacity:1;fill-rule:nonzero;stroke:none"
           d="m 0,0 c 0.167,-0.43 0.171,-0.899 -0.107,-1.347 -0.314,-0.511 -0.786,-0.482 -1.232,-0.179 -0.197,0.132 -0.378,0.29 -0.521,0.48 -0.274,0.364 -0.382,0.761 -0.433,1.202 -0.021,0.186 -0.021,0.373 0,0.558 0.07,0.618 0.371,1.032 1.017,0.67 C -0.748,1.089 -0.227,0.58 0,0" /></g><g
         transform="translate(654.90948,346.14188)"
         id="g236"><path
           inkscape:connector-curvature="0"
           id="path238"
           style="fill:#94a0ce;fill-opacity:1;fill-rule:nonzero;stroke:none"
           d="m 0,0 c 0.09,-0.199 0.207,-0.625 0.01,-0.802 -0.18,-0.162 -0.393,0.069 -0.525,0.188 -0.125,0.111 -0.23,0.253 -0.31,0.399 -0.097,0.179 -0.329,0.678 -0.154,0.851 C -0.705,0.903 -0.217,0.483 0,0" /></g><g
         transform="translate(638.64545,342.04291)"
         id="g240"><path
           inkscape:connector-curvature="0"
           id="path242"
           style="fill:#c3cade;fill-opacity:1;fill-rule:nonzero;stroke:none"
           d="m 0,0 c 1.957,-2.233 3.778,-4.466 5.873,-6.733 -8.587,-0.205 -16.352,-0.068 -24.905,0.481 -2.267,1.684 -3.778,4.294 -5.703,6.424 l 0.173,0.172 C -16.112,-0.137 -8.04,0.241 0,0" /></g><g
         transform="translate(619.54449,340.80692)"
         id="g244"><path
           inkscape:connector-curvature="0"
           id="path246"
           style="fill:#231f20;fill-opacity:1;fill-rule:nonzero;stroke:none"
           d="M 0,0 C 0.17,-0.594 -1.623,-0.807 -1.82,-0.139 -2.041,0.613 -0.204,0.718 0,0" /></g><g
         transform="translate(637.12048,340.96793)"
         id="g248"><path
           inkscape:connector-curvature="0"
           id="path250"
           style="fill:#231f20;fill-opacity:1;fill-rule:nonzero;stroke:none"
           d="m 0,0 c 0.093,-0.326 -0.406,-0.735 -0.777,-0.71 -0.345,0.021 -1.065,-0.004 -1.154,0.434 -0.108,0.537 0.581,0.651 0.956,0.651 0.232,0 0.495,-0.021 0.71,-0.118 C -0.108,0.189 -0.027,0.098 0,0" /></g><g
         transform="translate(628.24249,340.2529)"
         id="g252"><path
           inkscape:connector-curvature="0"
           id="path254"
           style="fill:#231f20;fill-opacity:1;fill-rule:nonzero;stroke:none"
           d="m 0,0 c 0.009,-0.07 -0.014,-0.146 -0.077,-0.218 -0.176,-0.201 -0.478,-0.138 -0.708,-0.188 -0.333,-0.073 -0.631,-0.01 -0.664,0.411 -0.052,0.653 0.785,0.566 1.163,0.343 C -0.15,0.268 -0.017,0.14 0,0" /></g><g
         transform="translate(646.71747,333.97095)"
         id="g256"><path
           inkscape:connector-curvature="0"
           id="path258"
           style="fill:#6fa48c;fill-opacity:1;fill-rule:nonzero;stroke:none"
           d="m 0,0 c -0.38,-2.014 -0.224,-4.099 -0.105,-6.13 0.035,-0.62 0.554,-5.114 -1.162,-4.203 -0.721,0.381 -1.172,1.616 -1.464,2.318 -0.744,1.788 -1.246,3.854 -1.46,5.782 0,10e-4 -0.241,2.164 -0.241,2.164 C -3.091,0.068 -1.373,-0.035 0,0" /></g><g
         transform="translate(707.05127,500.98538)"
         id="g260"><path
           inkscape:connector-curvature="0"
           id="path262"
           style="fill:#00613b;fill-opacity:1;fill-rule:nonzero;stroke:none"
           d="m 0,0 0.315,-0.43 c 0,0 2.681,0.664 3.292,0.773 C 4.219,0.452 6.532,0.957 6.532,0.957 5.812,0.957 0,0 0,0" /></g><g
         transform="translate(647.50745,356.27585)"
         id="g264"><path
           inkscape:connector-curvature="0"
           id="path266"
           style="fill:#94a0ce;fill-opacity:1;fill-rule:nonzero;stroke:none"
           d="M 0,0 C 0,0 -0.372,0.774 0,0.917 0.372,1.059 0.802,0.716 0.802,0.716 L 0,0" /></g><g
         transform="translate(691.86029,435.90158)"
         id="g268"><path
           inkscape:connector-curvature="0"
           id="path270"
           style="fill:#00613b;fill-opacity:1;fill-rule:nonzero;stroke:none"
           d="m 0,0 c 1.801,3.823 7.965,14.489 7.965,14.489 l 1.852,-1.303 c 0,0 -3.69,-5.785 -6.351,-11.804 -0.681,-2.06 -1.741,-4.29 -2.438,-7.195 0,0 -2.382,2.753 -1.788,4.946 C -0.568,-0.73 -0.308,-0.428 0,0" /></g><g
         transform="translate(657.81238,384.76074)"
         id="g272"><path
           inkscape:connector-curvature="0"
           id="path274"
           style="fill:#861810;fill-opacity:1;fill-rule:nonzero;stroke:none"
           d="m 0,0 c 6.408,-0.682 11.852,2.146 11.852,2.146 0,0 -0.606,-3.183 -2.51,-5.282 0,0 -12.69,-3.048 -18.874,3.136 -0.195,0.292 -0.552,1.185 -0.6,4.895 C -6.784,1.074 -3.347,0.356 0,0" /></g><g
         transform="translate(651.40448,386.93076)"
         id="g276"><path
           inkscape:connector-curvature="0"
           id="path278"
           style="fill:#861810;fill-opacity:1;fill-rule:nonzero;stroke:none"
           d="m 0,0 c 2.249,-1.357 4.187,-1.934 6.408,-2.17 6.408,-0.682 11.852,2.146 11.852,2.146 0,0 -0.606,-3.183 -2.51,-5.282 0,0 -12.69,-3.048 -18.874,3.136 -0.195,0.292 -0.552,1.185 -0.6,4.895 C -2.597,1.44 -1.139,0.688 0,0" /></g></g></g></svg>